<?xml version="1.0" encoding="UTF-8"?>
<!DOCTYPE svg PUBLIC "-//W3C//DTD SVG 1.1//EN" "http://www.w3.org/Graphics/SVG/1.1/DTD/svg11.dtd">
<svg xmlns="http://www.w3.org/2000/svg" version="1.1" width="868px" height="316px" style="shape-rendering:geometricPrecision; text-rendering:geometricPrecision; image-rendering:optimizeQuality; fill-rule:evenodd; clip-rule:evenodd" xmlns:xlink="http://www.w3.org/1999/xlink">
<g><path style="opacity:0.965" fill="#000e1e" d="M 703.5,47.5 C 712.5,47.5 721.5,47.5 730.5,47.5C 730.5,120.167 730.5,192.833 730.5,265.5C 723.825,265.666 717.158,265.5 710.5,265C 708.951,263.786 707.785,262.286 707,260.5C 706.916,254.971 705.916,249.638 704,244.5C 688.278,262.633 668.445,270.133 644.5,267C 622.114,261.614 607.947,247.781 602,225.5C 596.066,203.493 596.066,181.493 602,159.5C 617.874,117.814 647.041,103.981 689.5,118C 694.572,120.736 699.072,124.236 703,128.5C 703.5,101.502 703.667,74.5021 703.5,47.5 Z M 664.5,133.5 C 699.402,134.944 712.402,152.777 703.5,187C 703.649,199.925 703.149,212.758 702,225.5C 688.034,243.155 670.2,248.989 648.5,243C 636.871,236.599 630.038,226.766 628,213.5C 626,198.833 626,184.167 628,169.5C 632.19,149.141 644.357,137.141 664.5,133.5 Z"/></g>
<g><path style="opacity:0.6" fill="#545c65" d="M 237.5,51.5 C 247.658,50.3415 257.992,50.1748 268.5,51C 267.956,51.7172 267.289,52.2172 266.5,52.5C 257.014,51.5062 247.348,51.1729 237.5,51.5 Z"/></g>
<g><path style="opacity:0.999" fill="#0c1825" d="M 237.5,51.5 C 247.348,51.1729 257.014,51.5062 266.5,52.5C 256.876,63.9614 247.043,75.2948 237,86.5C 234.795,89.0402 232.295,91.2068 229.5,93C 222.5,93.6667 215.5,93.6667 208.5,93C 209.399,91.3484 210.399,89.8484 211.5,88.5C 212.906,88.0269 213.573,87.0269 213.5,85.5C 217.11,78.5663 221.11,71.8996 225.5,65.5C 226.906,65.0269 227.573,64.0269 227.5,62.5C 228.11,60.5659 229.11,58.8993 230.5,57.5C 231.906,57.0269 232.573,56.0269 232.5,54.5C 233.401,52.2729 235.067,51.2729 237.5,51.5 Z"/></g>
<g><path style="opacity:0.955" fill="#000e1e" d="M 473.5,52.5 C 483.522,52.1681 493.522,52.5015 503.5,53.5C 531.858,124.207 560.191,194.873 588.5,265.5C 588.333,265.833 588.167,266.167 588,266.5C 579.245,265.681 570.411,265.181 561.5,265C 559.714,264.215 558.214,263.049 557,261.5C 549.297,243.773 542.464,225.773 536.5,207.5C 504.832,207.333 473.165,207.5 441.5,208C 434.85,226.452 427.516,244.619 419.5,262.5C 418.335,263.584 417.002,264.417 415.5,265C 406.922,265.182 398.422,265.682 390,266.5C 390.013,263.103 390.679,259.77 392,256.5C 419.777,188.702 446.944,120.702 473.5,52.5 Z M 450.5,185.5 C 463.839,151.312 476.672,116.979 489,82.5C 489.414,86.656 490.414,90.656 492,94.5C 504.088,124.665 515.588,154.998 526.5,185.5C 501.167,185.5 475.833,185.5 450.5,185.5 Z"/></g>
<g><path style="opacity:0.97" fill="#139bd3" d="M -0.5,52.5 C 55.4049,52.1691 111.238,52.5024 167,53.5C 167.815,61.7457 167.648,69.9124 166.5,78C 143.594,78.8269 120.761,78.6602 98,77.5C 97.5,140.166 97.3333,202.832 97.5,265.5C 87.8333,265.5 78.1667,265.5 68.5,265.5C 68.6667,202.832 68.5,140.166 68,77.5C 45.2417,78.494 22.4084,78.8273 -0.5,78.5C -0.5,69.8333 -0.5,61.1667 -0.5,52.5 Z"/></g>
<g><path style="opacity:0.506" fill="#8b9299" d="M 232.5,54.5 C 232.573,56.0269 231.906,57.0269 230.5,57.5C 230.427,55.9731 231.094,54.9731 232.5,54.5 Z"/></g>
<g><path style="opacity:0.322" fill="#9ca2a8" d="M 227.5,62.5 C 227.573,64.0269 226.906,65.0269 225.5,65.5C 225.427,63.9731 226.094,62.9731 227.5,62.5 Z"/></g>
<g><path style="opacity:0.537" fill="#7f878f" d="M 213.5,85.5 C 213.573,87.0269 212.906,88.0269 211.5,88.5C 211.427,86.9731 212.094,85.9731 213.5,85.5 Z"/></g>
<g><path style="opacity:0.979" fill="#139bd3" d="M 377.5,112.5 C 382.844,112.334 388.177,112.501 393.5,113C 396.903,113.578 400.07,114.745 403,116.5C 402.997,123.531 402.33,130.531 401,137.5C 400.126,139.776 398.459,141.11 396,141.5C 373.582,135.045 357.582,142.378 348,163.5C 347.275,165.949 346.275,168.283 345,170.5C 344.5,202.165 344.333,233.832 344.5,265.5C 335.5,265.5 326.5,265.5 317.5,265.5C 317.5,215.167 317.5,164.833 317.5,114.5C 323.509,114.334 329.509,114.501 335.5,115C 338.973,115.807 341.14,117.973 342,121.5C 342.114,128.579 342.781,135.579 344,142.5C 348.631,132.866 355.131,124.699 363.5,118C 368.159,115.842 372.825,114.009 377.5,112.5 Z"/></g>
<g><path style="opacity:0.946" fill="#000e1e" d="M 867.5,209.5 C 867.5,216.833 867.5,224.167 867.5,231.5C 860.785,251.699 846.785,263.532 825.5,267C 801.024,271.225 779.358,265.392 760.5,249.5C 762.435,245.723 764.602,242.057 767,238.5C 768.743,236.129 771.077,234.795 774,234.5C 781.606,238.719 789.439,242.553 797.5,246C 809.425,249.309 821.092,248.309 832.5,243C 841.551,236.179 844.385,227.346 841,216.5C 836.564,210.518 830.731,206.352 823.5,204C 809.384,200.184 795.717,195.184 782.5,189C 765.021,176.404 760.188,159.904 768,139.5C 776.907,123.279 790.74,114.445 809.5,113C 830.504,110.449 849.004,115.949 865,129.5C 865.667,130.5 865.667,131.5 865,132.5C 862.623,136.088 860.123,139.588 857.5,143C 856.167,143.167 854.833,143.333 853.5,143.5C 845.446,139.815 837.112,136.648 828.5,134C 815.19,131.033 803.69,134.2 794,143.5C 788.215,153.074 789.715,161.241 798.5,168C 811.493,173.915 824.826,178.915 838.5,183C 852.572,187.248 862.239,196.081 867.5,209.5 Z"/></g>
<g><path style="opacity:0.998" fill="#139bd3" d="M 208.5,315.5 C 199.833,315.5 191.167,315.5 182.5,315.5C 190.914,295.605 199.914,275.938 209.5,256.5C 188.524,209.556 167.858,162.556 147.5,115.5C 155.813,114.335 164.147,114.168 172.5,115C 174.848,115.346 176.681,116.513 178,118.5C 194.069,153.981 209.069,189.981 223,226.5C 236.948,190.651 251.281,154.984 266,119.5C 267.637,117.19 269.804,115.69 272.5,115C 280.159,114.5 287.826,114.334 295.5,114.5C 267.329,181.843 238.329,248.843 208.5,315.5 Z"/></g>
<g><path style="opacity:0.008" fill="#fefffe" d="M 407.5,308.5 C 413.509,308.334 419.509,308.501 425.5,309C 417.951,311.849 410.284,312.182 402.5,310C 404.382,309.802 406.048,309.302 407.5,308.5 Z"/></g>
</svg>
