<?xml version="1.0" encoding="UTF-8"?>
<!DOCTYPE svg PUBLIC "-//W3C//DTD SVG 1.1//EN" "http://www.w3.org/Graphics/SVG/1.1/DTD/svg11.dtd">
<svg xmlns="http://www.w3.org/2000/svg" version="1.1" width="32px" height="32px" style="shape-rendering:geometricPrecision; text-rendering:geometricPrecision; image-rendering:optimizeQuality; fill-rule:evenodd; clip-rule:evenodd" xmlns:xlink="http://www.w3.org/1999/xlink">
<g><path style="opacity:1" fill="#199cd3" d="M -0.5,-0.5 C 10.1667,-0.5 20.8333,-0.5 31.5,-0.5C 31.5,10.1667 31.5,20.8333 31.5,31.5C 20.8333,31.5 10.1667,31.5 -0.5,31.5C -0.5,20.8333 -0.5,10.1667 -0.5,-0.5 Z"/></g>
<g><path style="opacity:1" fill="#cce7f2" d="M 9.5,10.5 C 8.67871,13.6414 8.17871,16.9748 8,20.5C 7.82129,16.9748 7.32129,13.6414 6.5,10.5C 5.32496,10.719 4.32496,10.3857 3.5,9.5C 6.5,8.16667 9.5,8.16667 12.5,9.5C 11.675,10.3857 10.675,10.719 9.5,10.5 Z"/></g>
<g><path style="opacity:1" fill="#28637e" d="M 16.5,8.5 C 18.6559,8.87182 18.6559,9.87182 16.5,11.5C 15.4376,10.5754 15.4376,9.57537 16.5,8.5 Z"/></g>
<g><path style="opacity:1" fill="#6ab8d9" d="M 6.5,10.5 C 7.32129,13.6414 7.82129,16.9748 8,20.5C 8.17871,16.9748 8.67871,13.6414 9.5,10.5C 9.5,14.1667 9.5,17.8333 9.5,21.5C 8.5,21.5 7.5,21.5 6.5,21.5C 6.5,17.8333 6.5,14.1667 6.5,10.5 Z"/></g>
<g><path style="opacity:1" fill="#b5dced" d="M 21.5,12.5 C 23.1992,12.3398 24.8659,12.5065 26.5,13C 25.5838,13.3742 24.7504,13.8742 24,14.5C 23.8142,16.9005 23.3142,19.2338 22.5,21.5C 21.5159,18.5719 21.1826,15.5719 21.5,12.5 Z"/></g>
<g><path style="opacity:1" fill="#c9e5f0" d="M 12.5,12.5 C 14.1361,13.7489 15.3028,15.4156 16,17.5C 17.0836,16.3349 17.9169,15.0016 18.5,13.5C 19.0016,12.479 19.6683,12.3123 20.5,13C 18.795,16.9096 16.9616,20.7429 15,24.5C 15.3628,20.3774 14.5295,16.3774 12.5,12.5 Z"/></g>
</svg>
