<?xml version="1.0" encoding="UTF-8"?>
<!DOCTYPE svg PUBLIC "-//W3C//DTD SVG 1.1//EN" "http://www.w3.org/Graphics/SVG/1.1/DTD/svg11.dtd">
<svg xmlns="http://www.w3.org/2000/svg" version="1.1" width="237px" height="74px" style="shape-rendering:geometricPrecision; text-rendering:geometricPrecision; image-rendering:optimizeQuality; fill-rule:evenodd; clip-rule:evenodd" xmlns:xlink="http://www.w3.org/1999/xlink">
<g><path style="opacity:0.941" fill="#fafbfb" d="M 190.5,-0.5 C 193.5,-0.5 196.5,-0.5 199.5,-0.5C 199.667,19.1695 199.5,38.8362 199,58.5C 194.362,60.7523 191.695,59.4189 191,54.5C 181.71,62.5738 173.044,61.9072 165,52.5C 161.389,43.0045 161.723,33.6712 166,24.5C 172.965,16.8376 180.965,15.5043 190,20.5C 190.5,13.5079 190.666,6.50793 190.5,-0.5 Z M 178.5,23.5 C 183.039,22.9569 186.873,24.2902 190,27.5C 190.667,34.5 190.667,41.5 190,48.5C 178.163,56.833 171.663,53.6664 170.5,39C 170.163,32.171 172.83,27.0044 178.5,23.5 Z"/></g>
<g><path style="opacity:0.861" fill="#fcfcfc" d="M 63.5,0.5 C 66.8499,0.334989 70.1832,0.501655 73.5,1C 70.1667,4.66667 66.8333,8.33333 63.5,12C 61.0982,12.8141 58.7649,12.6474 56.5,11.5C 58.5943,7.63585 60.9277,3.96918 63.5,0.5 Z"/></g>
<g><path style="opacity:0.942" fill="#159bd3" d="M -0.5,0.5 C 14.8333,0.5 30.1667,0.5 45.5,0.5C 45.5,3.16667 45.5,5.83333 45.5,8.5C 39.5,8.5 33.5,8.5 27.5,8.5C 27.5,25.5 27.5,42.5 27.5,59.5C 24.5,59.5 21.5,59.5 18.5,59.5C 18.5,42.5 18.5,25.5 18.5,8.5C 12.1667,8.5 5.83333,8.5 -0.5,8.5C -0.5,5.83333 -0.5,3.16667 -0.5,0.5 Z"/></g>
<g><path style="opacity:0.909" fill="#fcfcfc" d="M 128.5,0.5 C 131.572,0.182589 134.572,0.515923 137.5,1.5C 144.971,20.58 152.638,39.58 160.5,58.5C 157.5,59.8333 154.5,59.8333 151.5,58.5C 149.305,53.9154 147.305,49.2487 145.5,44.5C 137.187,43.3349 128.853,43.1683 120.5,44C 118.546,49.2049 116.213,54.2049 113.5,59C 110.773,59.8184 108.106,59.6517 105.5,58.5C 113.18,39.1454 120.846,19.8121 128.5,0.5 Z M 132.5,11.5 C 136.404,19.868 139.737,28.5346 142.5,37.5C 135.825,37.6663 129.158,37.4996 122.5,37C 126.129,28.6115 129.463,20.1115 132.5,11.5 Z"/></g>
<g><path style="opacity:0.909" fill="#1f9cd3" d="M 56.5,73.5 C 54.1667,73.5 51.8333,73.5 49.5,73.5C 51.5381,67.7512 53.8714,62.0846 56.5,56.5C 50.9001,44.0893 45.2334,31.256 39.5,18C 42.9926,16.9963 46.1592,17.4963 49,19.5C 52.8138,28.6177 56.8138,37.6177 61,46.5C 64.5052,36.6613 68.6718,27.1613 73.5,18C 75.8098,17.5034 78.1432,17.3367 80.5,17.5C 73.037,36.4228 65.037,55.0895 56.5,73.5 Z"/></g>
<g><path style="opacity:0.894" fill="#159bd3" d="M 86.5,17.5 C 92.023,16.5372 94.523,18.8705 94,24.5C 97.3187,18.2598 102.485,15.9265 109.5,17.5C 109.5,20.1667 109.5,22.8333 109.5,25.5C 103.005,23.9273 98.1717,25.9273 95,31.5C 94.5002,40.8274 94.3335,50.1607 94.5,59.5C 91.8333,59.5 89.1667,59.5 86.5,59.5C 86.5,45.5 86.5,31.5 86.5,17.5 Z"/></g>
<g><path style="opacity:0.89" fill="#fcfcfc" d="M 236.5,43.5 C 236.5,45.5 236.5,47.5 236.5,49.5C 233.732,56.5746 228.399,60.2413 220.5,60.5C 214.985,60.2255 210.318,58.2255 206.5,54.5C 206.96,52.2143 208.293,50.881 210.5,50.5C 215.105,53.298 220.105,54.1313 225.5,53C 228.978,50.2935 229.311,47.2935 226.5,44C 221.42,42.1957 216.42,40.1957 211.5,38C 205.157,29.4427 206.824,22.776 216.5,18C 220.5,17.3333 224.5,17.3333 228.5,18C 231.034,18.5163 233.2,19.683 235,21.5C 235.265,23.1626 234.765,24.6626 233.5,26C 230.033,25.3703 226.533,24.537 223,23.5C 215.326,24.1143 213.826,27.2809 218.5,33C 226.019,34.2473 232.019,37.7473 236.5,43.5 Z"/></g>
</svg>
