<?xml version="1.0" encoding="UTF-8"?>
<!DOCTYPE svg PUBLIC "-//W3C//DTD SVG 1.1//EN" "http://www.w3.org/Graphics/SVG/1.1/DTD/svg11.dtd">
<svg xmlns="http://www.w3.org/2000/svg" version="1.1" width="1043px" height="1043px" style="shape-rendering:geometricPrecision; text-rendering:geometricPrecision; image-rendering:optimizeQuality; fill-rule:evenodd; clip-rule:evenodd" xmlns:xlink="http://www.w3.org/1999/xlink">
<g><path style="opacity:0.999" fill="#fd5721" d="M 1042.5,496.5 C 1042.5,513.167 1042.5,529.833 1042.5,546.5C 1030.6,712.835 958.268,845.668 825.5,945C 741.966,1004.24 648.966,1036.74 546.5,1042.5C 529.833,1042.5 513.167,1042.5 496.5,1042.5C 330.165,1030.6 197.332,958.268 98,825.5C 14.2635,704.859 -15.4031,571.859 9,426.5C 39.7895,276.479 119.289,160.313 247.5,78C 375.443,1.76952 511.776,-18.2305 656.5,18C 812.509,63.3493 925.675,159.183 996,305.5C 1023.31,366.399 1038.81,430.066 1042.5,496.5 Z"/></g>
<g><path style="opacity:1" fill="#fdfdfd" d="M 807.5,507.5 C 806.698,508.952 806.198,510.618 806,512.5C 805.501,517.823 805.334,523.156 805.5,528.5C 799.717,605.483 794.05,682.483 788.5,759.5C 787.697,769.066 786.697,778.733 785.5,788.5C 781.065,810.553 769.732,828.053 751.5,841C 746.475,844.015 741.142,846.182 735.5,847.5C 729.779,847.369 724.112,847.869 718.5,849C 586.333,849.167 454.333,849.667 322.5,850.5C 294.644,849.834 274.477,837.167 262,812.5C 258.088,803.517 255.421,794.183 254,784.5C 251.292,752.176 248.792,719.843 246.5,687.5C 246.921,679.589 246.255,671.923 244.5,664.5C 238.998,581.141 233.165,497.807 227,414.5C 226.09,405.756 226.424,397.089 228,388.5C 232.258,379.906 239.092,374.739 248.5,373C 295.5,372.667 342.5,372.333 389.5,372C 390.823,371.184 391.489,370.017 391.5,368.5C 393.226,359.384 394.226,350.051 394.5,340.5C 398.645,300.553 412.145,264.22 435,231.5C 468.804,192.239 510.304,181.072 559.5,198C 578.331,207.492 594.164,220.659 607,237.5C 633.113,277.85 646.78,322.183 648,370.5C 648.5,371 649,371.5 649.5,372C 697.833,372.333 746.167,372.667 794.5,373C 807.629,378.27 814.295,387.936 814.5,402C 811.764,437.139 809.431,472.306 807.5,507.5 Z"/></g>
<g><path style="opacity:1" fill="#fd5721" d="M 510.5,223.5 C 529.581,222.589 546.914,227.423 562.5,238C 582.013,256.854 595.513,279.354 603,305.5C 608.668,326.511 612.502,347.844 614.5,369.5C 614.392,370.442 614.059,371.275 613.5,372C 550.93,372.831 488.43,372.664 426,371.5C 426.338,334.48 435.005,299.48 452,266.5C 461.732,249.803 475.232,237.303 492.5,229C 498.618,227.143 504.618,225.31 510.5,223.5 Z"/></g>
<g><path style="opacity:1" fill="#f39d7c" d="M 394.5,340.5 C 394.226,350.051 393.226,359.384 391.5,368.5C 390.881,358.834 391.881,349.501 394.5,340.5 Z"/></g>
<g><path style="opacity:1" fill="#fc5723" d="M 622.5,671.5 C 622.656,679.529 622.323,687.529 621.5,695.5C 620.641,702.578 618.474,709.245 615,715.5C 604.78,732.053 590.613,743.887 572.5,751C 551.456,758.242 529.79,760.575 507.5,758C 478.883,753.02 452.883,742.02 429.5,725C 420.986,717.089 421.653,710.089 431.5,704C 433.833,703.333 436.167,703.333 438.5,704C 460.509,720.46 485.176,731.127 512.5,736C 536.469,738.818 558.802,734.152 579.5,722C 597.27,708.362 603.77,690.529 599,668.5C 595.47,659.268 590.304,651.102 583.5,644C 571.336,634.746 558.336,626.746 544.5,620C 527.628,613.826 510.961,607.493 494.5,601C 476.487,593.32 460.987,582.154 448,567.5C 440.046,556.804 435.546,544.804 434.5,531.5C 440.487,486.456 466.154,460.956 511.5,455C 544.152,452.911 573.819,461.245 600.5,480C 605.182,487.537 603.849,493.871 596.5,499C 594.5,499.667 592.5,499.667 590.5,499C 572.745,486.746 553.078,479.412 531.5,477C 506.371,475.329 485.205,483.496 468,501.5C 457.714,516.073 455.714,531.74 462,548.5C 464.748,553.252 468.248,557.419 472.5,561C 484.886,570.197 498.219,577.864 512.5,584C 540.591,591.716 566.591,603.716 590.5,620C 604.541,631.376 614.707,645.543 621,662.5C 621.502,665.513 622.002,668.513 622.5,671.5 Z"/></g>
<g><path style="opacity:1" fill="#ec8963" d="M 807.5,507.5 C 807.741,514.73 807.075,521.73 805.5,528.5C 805.334,523.156 805.501,517.823 806,512.5C 806.198,510.618 806.698,508.952 807.5,507.5 Z"/></g>
<g><path style="opacity:1" fill="#f57348" d="M 244.5,664.5 C 246.255,671.923 246.921,679.589 246.5,687.5C 245.732,686.737 245.232,685.737 245,684.5C 244.5,677.842 244.334,671.175 244.5,664.5 Z"/></g>
<g><path style="opacity:1" fill="#f98d68" d="M 622.5,671.5 C 623.655,678.655 623.822,685.988 623,693.5C 622.722,694.416 622.222,695.082 621.5,695.5C 622.323,687.529 622.656,679.529 622.5,671.5 Z"/></g>
<g><path style="opacity:1" fill="#f59375" d="M 788.5,759.5 C 789.14,769.485 788.14,779.152 785.5,788.5C 786.697,778.733 787.697,769.066 788.5,759.5 Z"/></g>
<g><path style="opacity:1" fill="#f3d7c8" d="M 735.5,847.5 C 732.678,848.507 729.678,849.34 726.5,850C 591.834,850.5 457.167,850.667 322.5,850.5C 454.333,849.667 586.333,849.167 718.5,849C 724.112,847.869 729.779,847.369 735.5,847.5 Z"/></g>
</svg>
