<?xml version="1.0" encoding="UTF-8"?>
<!DOCTYPE svg PUBLIC "-//W3C//DTD SVG 1.1//EN" "http://www.w3.org/Graphics/SVG/1.1/DTD/svg11.dtd">
<svg xmlns="http://www.w3.org/2000/svg" version="1.1" width="860px" height="900px" style="shape-rendering:geometricPrecision; text-rendering:geometricPrecision; image-rendering:optimizeQuality; fill-rule:evenodd; clip-rule:evenodd" xmlns:xlink="http://www.w3.org/1999/xlink">
<g><path style="opacity:1" fill="#fefffe" d="M -0.5,-0.5 C 6.16667,-0.5 12.8333,-0.5 19.5,-0.5C 19.5,6.16667 19.5,12.8333 19.5,19.5C 12.8333,19.5 6.16667,19.5 -0.5,19.5C -0.5,12.8333 -0.5,6.16667 -0.5,-0.5 Z"/></g>
<g><path style="opacity:1" fill="#edeeed" d="M 19.5,-0.5 C 26.1667,-0.5 32.8333,-0.5 39.5,-0.5C 39.5,6.16667 39.5,12.8333 39.5,19.5C 32.8333,19.5 26.1667,19.5 19.5,19.5C 19.5,12.8333 19.5,6.16667 19.5,-0.5 Z"/></g>
<g><path style="opacity:1" fill="#fefffe" d="M 39.5,-0.5 C 46.1667,-0.5 52.8333,-0.5 59.5,-0.5C 59.5,6.16667 59.5,12.8333 59.5,19.5C 52.8333,19.5 46.1667,19.5 39.5,19.5C 39.5,12.8333 39.5,6.16667 39.5,-0.5 Z"/></g>
<g><path style="opacity:1" fill="#edeeed" d="M 59.5,-0.5 C 66.1667,-0.5 72.8333,-0.5 79.5,-0.5C 79.5,6.16667 79.5,12.8333 79.5,19.5C 72.8333,19.5 66.1667,19.5 59.5,19.5C 59.5,12.8333 59.5,6.16667 59.5,-0.5 Z"/></g>
<g><path style="opacity:1" fill="#fefffe" d="M 79.5,-0.5 C 86.1667,-0.5 92.8333,-0.5 99.5,-0.5C 99.5,6.16667 99.5,12.8333 99.5,19.5C 92.8333,19.5 86.1667,19.5 79.5,19.5C 79.5,12.8333 79.5,6.16667 79.5,-0.5 Z"/></g>
<g><path style="opacity:1" fill="#edeeed" d="M 99.5,-0.5 C 106.167,-0.5 112.833,-0.5 119.5,-0.5C 119.5,6.16667 119.5,12.8333 119.5,19.5C 112.833,19.5 106.167,19.5 99.5,19.5C 99.5,12.8333 99.5,6.16667 99.5,-0.5 Z"/></g>
<g><path style="opacity:1" fill="#fefffe" d="M 119.5,-0.5 C 126.167,-0.5 132.833,-0.5 139.5,-0.5C 139.5,6.16667 139.5,12.8333 139.5,19.5C 132.833,19.5 126.167,19.5 119.5,19.5C 119.5,12.8333 119.5,6.16667 119.5,-0.5 Z"/></g>
<g><path style="opacity:1" fill="#edeeed" d="M 139.5,-0.5 C 146.167,-0.5 152.833,-0.5 159.5,-0.5C 159.5,6.16667 159.5,12.8333 159.5,19.5C 152.833,19.5 146.167,19.5 139.5,19.5C 139.5,12.8333 139.5,6.16667 139.5,-0.5 Z"/></g>
<g><path style="opacity:1" fill="#fefffe" d="M 159.5,-0.5 C 166.167,-0.5 172.833,-0.5 179.5,-0.5C 179.5,6.16667 179.5,12.8333 179.5,19.5C 172.833,19.5 166.167,19.5 159.5,19.5C 159.5,12.8333 159.5,6.16667 159.5,-0.5 Z"/></g>
<g><path style="opacity:1" fill="#edeeed" d="M 179.5,-0.5 C 186.167,-0.5 192.833,-0.5 199.5,-0.5C 199.5,6.16667 199.5,12.8333 199.5,19.5C 192.833,19.5 186.167,19.5 179.5,19.5C 179.5,12.8333 179.5,6.16667 179.5,-0.5 Z"/></g>
<g><path style="opacity:1" fill="#fefffe" d="M 199.5,-0.5 C 206.167,-0.5 212.833,-0.5 219.5,-0.5C 219.5,6.16667 219.5,12.8333 219.5,19.5C 212.833,19.5 206.167,19.5 199.5,19.5C 199.5,12.8333 199.5,6.16667 199.5,-0.5 Z"/></g>
<g><path style="opacity:1" fill="#edeeed" d="M 219.5,-0.5 C 226.167,-0.5 232.833,-0.5 239.5,-0.5C 239.5,6.16667 239.5,12.8333 239.5,19.5C 232.833,19.5 226.167,19.5 219.5,19.5C 219.5,12.8333 219.5,6.16667 219.5,-0.5 Z"/></g>
<g><path style="opacity:1" fill="#fefffe" d="M 239.5,-0.5 C 246.167,-0.5 252.833,-0.5 259.5,-0.5C 259.5,6.16667 259.5,12.8333 259.5,19.5C 252.833,19.5 246.167,19.5 239.5,19.5C 239.5,12.8333 239.5,6.16667 239.5,-0.5 Z"/></g>
<g><path style="opacity:1" fill="#edeeed" d="M 259.5,-0.5 C 266.167,-0.5 272.833,-0.5 279.5,-0.5C 279.5,6.16667 279.5,12.8333 279.5,19.5C 272.833,19.5 266.167,19.5 259.5,19.5C 259.5,12.8333 259.5,6.16667 259.5,-0.5 Z"/></g>
<g><path style="opacity:1" fill="#fefffe" d="M 279.5,-0.5 C 286.167,-0.5 292.833,-0.5 299.5,-0.5C 299.5,6.16667 299.5,12.8333 299.5,19.5C 292.833,19.5 286.167,19.5 279.5,19.5C 279.5,12.8333 279.5,6.16667 279.5,-0.5 Z"/></g>
<g><path style="opacity:1" fill="#edeeed" d="M 299.5,-0.5 C 306.167,-0.5 312.833,-0.5 319.5,-0.5C 319.5,6.16667 319.5,12.8333 319.5,19.5C 312.833,19.5 306.167,19.5 299.5,19.5C 299.5,12.8333 299.5,6.16667 299.5,-0.5 Z"/></g>
<g><path style="opacity:1" fill="#fefffe" d="M 319.5,-0.5 C 326.167,-0.5 332.833,-0.5 339.5,-0.5C 339.5,6.16667 339.5,12.8333 339.5,19.5C 332.833,19.5 326.167,19.5 319.5,19.5C 319.5,12.8333 319.5,6.16667 319.5,-0.5 Z"/></g>
<g><path style="opacity:1" fill="#edeeed" d="M 339.5,-0.5 C 346.167,-0.5 352.833,-0.5 359.5,-0.5C 359.5,6.16667 359.5,12.8333 359.5,19.5C 352.833,19.5 346.167,19.5 339.5,19.5C 339.5,12.8333 339.5,6.16667 339.5,-0.5 Z"/></g>
<g><path style="opacity:1" fill="#fefffe" d="M 359.5,-0.5 C 366.167,-0.5 372.833,-0.5 379.5,-0.5C 379.5,6.16667 379.5,12.8333 379.5,19.5C 372.833,19.5 366.167,19.5 359.5,19.5C 359.5,12.8333 359.5,6.16667 359.5,-0.5 Z"/></g>
<g><path style="opacity:1" fill="#edeeed" d="M 379.5,-0.5 C 386.167,-0.5 392.833,-0.5 399.5,-0.5C 399.5,6.16667 399.5,12.8333 399.5,19.5C 392.833,19.5 386.167,19.5 379.5,19.5C 379.5,12.8333 379.5,6.16667 379.5,-0.5 Z"/></g>
<g><path style="opacity:1" fill="#fefffe" d="M 399.5,-0.5 C 406.167,-0.5 412.833,-0.5 419.5,-0.5C 419.5,6.16667 419.5,12.8333 419.5,19.5C 412.833,19.5 406.167,19.5 399.5,19.5C 399.5,12.8333 399.5,6.16667 399.5,-0.5 Z"/></g>
<g><path style="opacity:1" fill="#edeeed" d="M 419.5,-0.5 C 426.167,-0.5 432.833,-0.5 439.5,-0.5C 439.5,6.16667 439.5,12.8333 439.5,19.5C 432.833,19.5 426.167,19.5 419.5,19.5C 419.5,12.8333 419.5,6.16667 419.5,-0.5 Z"/></g>
<g><path style="opacity:1" fill="#fefffe" d="M 439.5,-0.5 C 446.167,-0.5 452.833,-0.5 459.5,-0.5C 459.5,6.16667 459.5,12.8333 459.5,19.5C 452.833,19.5 446.167,19.5 439.5,19.5C 439.5,12.8333 439.5,6.16667 439.5,-0.5 Z"/></g>
<g><path style="opacity:1" fill="#edeeed" d="M 459.5,-0.5 C 466.167,-0.5 472.833,-0.5 479.5,-0.5C 479.5,6.16667 479.5,12.8333 479.5,19.5C 472.833,19.5 466.167,19.5 459.5,19.5C 459.5,12.8333 459.5,6.16667 459.5,-0.5 Z"/></g>
<g><path style="opacity:1" fill="#fefffe" d="M 479.5,-0.5 C 486.167,-0.5 492.833,-0.5 499.5,-0.5C 499.5,6.16667 499.5,12.8333 499.5,19.5C 492.833,19.5 486.167,19.5 479.5,19.5C 479.5,12.8333 479.5,6.16667 479.5,-0.5 Z"/></g>
<g><path style="opacity:1" fill="#edeeed" d="M 499.5,-0.5 C 506.167,-0.5 512.833,-0.5 519.5,-0.5C 519.5,6.16667 519.5,12.8333 519.5,19.5C 512.833,19.5 506.167,19.5 499.5,19.5C 499.5,12.8333 499.5,6.16667 499.5,-0.5 Z"/></g>
<g><path style="opacity:1" fill="#fefffe" d="M 519.5,-0.5 C 526.167,-0.5 532.833,-0.5 539.5,-0.5C 539.5,6.16667 539.5,12.8333 539.5,19.5C 532.833,19.5 526.167,19.5 519.5,19.5C 519.5,12.8333 519.5,6.16667 519.5,-0.5 Z"/></g>
<g><path style="opacity:1" fill="#edeeed" d="M 539.5,-0.5 C 546.167,-0.5 552.833,-0.5 559.5,-0.5C 559.5,6.16667 559.5,12.8333 559.5,19.5C 552.833,19.5 546.167,19.5 539.5,19.5C 539.5,12.8333 539.5,6.16667 539.5,-0.5 Z"/></g>
<g><path style="opacity:1" fill="#fefffe" d="M 559.5,-0.5 C 566.167,-0.5 572.833,-0.5 579.5,-0.5C 579.5,6.16667 579.5,12.8333 579.5,19.5C 572.833,19.5 566.167,19.5 559.5,19.5C 559.5,12.8333 559.5,6.16667 559.5,-0.5 Z"/></g>
<g><path style="opacity:1" fill="#edeeed" d="M 579.5,-0.5 C 586.167,-0.5 592.833,-0.5 599.5,-0.5C 599.5,6.16667 599.5,12.8333 599.5,19.5C 592.833,19.5 586.167,19.5 579.5,19.5C 579.5,12.8333 579.5,6.16667 579.5,-0.5 Z"/></g>
<g><path style="opacity:1" fill="#fefffe" d="M 599.5,-0.5 C 606.167,-0.5 612.833,-0.5 619.5,-0.5C 619.5,6.16667 619.5,12.8333 619.5,19.5C 612.833,19.5 606.167,19.5 599.5,19.5C 599.5,12.8333 599.5,6.16667 599.5,-0.5 Z"/></g>
<g><path style="opacity:1" fill="#edeeed" d="M 619.5,-0.5 C 626.167,-0.5 632.833,-0.5 639.5,-0.5C 639.5,6.16667 639.5,12.8333 639.5,19.5C 632.833,19.5 626.167,19.5 619.5,19.5C 619.5,12.8333 619.5,6.16667 619.5,-0.5 Z"/></g>
<g><path style="opacity:1" fill="#fefffe" d="M 639.5,-0.5 C 646.167,-0.5 652.833,-0.5 659.5,-0.5C 659.5,6.16667 659.5,12.8333 659.5,19.5C 652.833,19.5 646.167,19.5 639.5,19.5C 639.5,12.8333 639.5,6.16667 639.5,-0.5 Z"/></g>
<g><path style="opacity:1" fill="#edeeed" d="M 659.5,-0.5 C 666.167,-0.5 672.833,-0.5 679.5,-0.5C 679.5,6.16667 679.5,12.8333 679.5,19.5C 672.833,19.5 666.167,19.5 659.5,19.5C 659.5,12.8333 659.5,6.16667 659.5,-0.5 Z"/></g>
<g><path style="opacity:1" fill="#fefffe" d="M 679.5,-0.5 C 686.167,-0.5 692.833,-0.5 699.5,-0.5C 699.5,6.16667 699.5,12.8333 699.5,19.5C 692.833,19.5 686.167,19.5 679.5,19.5C 679.5,12.8333 679.5,6.16667 679.5,-0.5 Z"/></g>
<g><path style="opacity:1" fill="#edeeed" d="M 699.5,-0.5 C 706.167,-0.5 712.833,-0.5 719.5,-0.5C 719.5,6.16667 719.5,12.8333 719.5,19.5C 712.833,19.5 706.167,19.5 699.5,19.5C 699.5,12.8333 699.5,6.16667 699.5,-0.5 Z"/></g>
<g><path style="opacity:1" fill="#fefffe" d="M 719.5,-0.5 C 726.167,-0.5 732.833,-0.5 739.5,-0.5C 739.5,6.16667 739.5,12.8333 739.5,19.5C 732.833,19.5 726.167,19.5 719.5,19.5C 719.5,12.8333 719.5,6.16667 719.5,-0.5 Z"/></g>
<g><path style="opacity:1" fill="#edeeed" d="M 739.5,-0.5 C 746.167,-0.5 752.833,-0.5 759.5,-0.5C 759.5,6.16667 759.5,12.8333 759.5,19.5C 752.833,19.5 746.167,19.5 739.5,19.5C 739.5,12.8333 739.5,6.16667 739.5,-0.5 Z"/></g>
<g><path style="opacity:1" fill="#fefffe" d="M 759.5,-0.5 C 766.167,-0.5 772.833,-0.5 779.5,-0.5C 779.5,6.16667 779.5,12.8333 779.5,19.5C 772.833,19.5 766.167,19.5 759.5,19.5C 759.5,12.8333 759.5,6.16667 759.5,-0.5 Z"/></g>
<g><path style="opacity:1" fill="#edeeed" d="M 779.5,-0.5 C 786.167,-0.5 792.833,-0.5 799.5,-0.5C 799.5,6.16667 799.5,12.8333 799.5,19.5C 792.833,19.5 786.167,19.5 779.5,19.5C 779.5,12.8333 779.5,6.16667 779.5,-0.5 Z"/></g>
<g><path style="opacity:1" fill="#fefffe" d="M 799.5,-0.5 C 806.167,-0.5 812.833,-0.5 819.5,-0.5C 819.5,6.16667 819.5,12.8333 819.5,19.5C 812.833,19.5 806.167,19.5 799.5,19.5C 799.5,12.8333 799.5,6.16667 799.5,-0.5 Z"/></g>
<g><path style="opacity:1" fill="#edeeed" d="M 819.5,-0.5 C 826.167,-0.5 832.833,-0.5 839.5,-0.5C 839.5,6.16667 839.5,12.8333 839.5,19.5C 832.833,19.5 826.167,19.5 819.5,19.5C 819.5,12.8333 819.5,6.16667 819.5,-0.5 Z"/></g>
<g><path style="opacity:1" fill="#fefffe" d="M 839.5,-0.5 C 846.167,-0.5 852.833,-0.5 859.5,-0.5C 859.5,6.16667 859.5,12.8333 859.5,19.5C 852.833,19.5 846.167,19.5 839.5,19.5C 839.5,12.8333 839.5,6.16667 839.5,-0.5 Z"/></g>
<g><path style="opacity:1" fill="#edeeed" d="M -0.5,19.5 C 6.16667,19.5 12.8333,19.5 19.5,19.5C 19.5,26.1667 19.5,32.8333 19.5,39.5C 12.8333,39.5 6.16667,39.5 -0.5,39.5C -0.5,32.8333 -0.5,26.1667 -0.5,19.5 Z"/></g>
<g><path style="opacity:1" fill="#fefffe" d="M 19.5,19.5 C 26.1667,19.5 32.8333,19.5 39.5,19.5C 39.5,26.1667 39.5,32.8333 39.5,39.5C 32.8333,39.5 26.1667,39.5 19.5,39.5C 19.5,32.8333 19.5,26.1667 19.5,19.5 Z"/></g>
<g><path style="opacity:1" fill="#edeeed" d="M 39.5,19.5 C 46.1667,19.5 52.8333,19.5 59.5,19.5C 59.5,26.1667 59.5,32.8333 59.5,39.5C 52.8333,39.5 46.1667,39.5 39.5,39.5C 39.5,32.8333 39.5,26.1667 39.5,19.5 Z"/></g>
<g><path style="opacity:1" fill="#fefffe" d="M 59.5,19.5 C 66.1667,19.5 72.8333,19.5 79.5,19.5C 79.5,26.1667 79.5,32.8333 79.5,39.5C 72.8333,39.5 66.1667,39.5 59.5,39.5C 59.5,32.8333 59.5,26.1667 59.5,19.5 Z"/></g>
<g><path style="opacity:1" fill="#edeeed" d="M 79.5,19.5 C 86.1667,19.5 92.8333,19.5 99.5,19.5C 99.5,26.1667 99.5,32.8333 99.5,39.5C 92.8333,39.5 86.1667,39.5 79.5,39.5C 79.5,32.8333 79.5,26.1667 79.5,19.5 Z"/></g>
<g><path style="opacity:1" fill="#fefffe" d="M 99.5,19.5 C 106.167,19.5 112.833,19.5 119.5,19.5C 119.5,26.1667 119.5,32.8333 119.5,39.5C 112.833,39.5 106.167,39.5 99.5,39.5C 99.5,32.8333 99.5,26.1667 99.5,19.5 Z"/></g>
<g><path style="opacity:1" fill="#edeeed" d="M 119.5,19.5 C 126.167,19.5 132.833,19.5 139.5,19.5C 139.5,26.1667 139.5,32.8333 139.5,39.5C 132.833,39.5 126.167,39.5 119.5,39.5C 119.5,32.8333 119.5,26.1667 119.5,19.5 Z"/></g>
<g><path style="opacity:1" fill="#fefffe" d="M 139.5,19.5 C 146.167,19.5 152.833,19.5 159.5,19.5C 159.5,26.1667 159.5,32.8333 159.5,39.5C 152.833,39.5 146.167,39.5 139.5,39.5C 139.5,32.8333 139.5,26.1667 139.5,19.5 Z"/></g>
<g><path style="opacity:1" fill="#edeeed" d="M 159.5,19.5 C 166.167,19.5 172.833,19.5 179.5,19.5C 179.5,26.1667 179.5,32.8333 179.5,39.5C 172.833,39.5 166.167,39.5 159.5,39.5C 159.5,32.8333 159.5,26.1667 159.5,19.5 Z"/></g>
<g><path style="opacity:1" fill="#fefffe" d="M 179.5,19.5 C 186.167,19.5 192.833,19.5 199.5,19.5C 199.5,26.1667 199.5,32.8333 199.5,39.5C 192.833,39.5 186.167,39.5 179.5,39.5C 179.5,32.8333 179.5,26.1667 179.5,19.5 Z"/></g>
<g><path style="opacity:1" fill="#edeeed" d="M 199.5,19.5 C 206.167,19.5 212.833,19.5 219.5,19.5C 219.5,26.1667 219.5,32.8333 219.5,39.5C 212.833,39.5 206.167,39.5 199.5,39.5C 199.5,32.8333 199.5,26.1667 199.5,19.5 Z"/></g>
<g><path style="opacity:1" fill="#fefffe" d="M 219.5,19.5 C 226.167,19.5 232.833,19.5 239.5,19.5C 239.5,26.1667 239.5,32.8333 239.5,39.5C 232.833,39.5 226.167,39.5 219.5,39.5C 219.5,32.8333 219.5,26.1667 219.5,19.5 Z"/></g>
<g><path style="opacity:1" fill="#edeeed" d="M 239.5,19.5 C 246.167,19.5 252.833,19.5 259.5,19.5C 259.5,26.1667 259.5,32.8333 259.5,39.5C 252.833,39.5 246.167,39.5 239.5,39.5C 239.5,32.8333 239.5,26.1667 239.5,19.5 Z"/></g>
<g><path style="opacity:1" fill="#fefffe" d="M 259.5,19.5 C 266.167,19.5 272.833,19.5 279.5,19.5C 279.5,26.1667 279.5,32.8333 279.5,39.5C 272.833,39.5 266.167,39.5 259.5,39.5C 259.5,32.8333 259.5,26.1667 259.5,19.5 Z"/></g>
<g><path style="opacity:1" fill="#edeeed" d="M 279.5,19.5 C 286.167,19.5 292.833,19.5 299.5,19.5C 299.5,26.1667 299.5,32.8333 299.5,39.5C 292.833,39.5 286.167,39.5 279.5,39.5C 279.5,32.8333 279.5,26.1667 279.5,19.5 Z"/></g>
<g><path style="opacity:1" fill="#fefffe" d="M 299.5,19.5 C 306.167,19.5 312.833,19.5 319.5,19.5C 319.5,26.1667 319.5,32.8333 319.5,39.5C 312.833,39.5 306.167,39.5 299.5,39.5C 299.5,32.8333 299.5,26.1667 299.5,19.5 Z"/></g>
<g><path style="opacity:1" fill="#edeeed" d="M 319.5,19.5 C 326.167,19.5 332.833,19.5 339.5,19.5C 339.5,26.1667 339.5,32.8333 339.5,39.5C 332.833,39.5 326.167,39.5 319.5,39.5C 319.5,32.8333 319.5,26.1667 319.5,19.5 Z"/></g>
<g><path style="opacity:1" fill="#fefffe" d="M 339.5,19.5 C 346.167,19.5 352.833,19.5 359.5,19.5C 359.5,26.1667 359.5,32.8333 359.5,39.5C 352.833,39.5 346.167,39.5 339.5,39.5C 339.5,32.8333 339.5,26.1667 339.5,19.5 Z"/></g>
<g><path style="opacity:1" fill="#f0edec" d="M 359.5,19.5 C 366.167,19.5 372.833,19.5 379.5,19.5C 379.5,26.1667 379.5,32.8333 379.5,39.5C 386.167,39.5 392.833,39.5 399.5,39.5C 399.5,32.8333 399.5,26.1667 399.5,19.5C 406.167,19.5 412.833,19.5 419.5,19.5C 419.5,26.1667 419.5,32.8333 419.5,39.5C 426.167,39.5 432.833,39.5 439.5,39.5C 439.5,32.8333 439.5,26.1667 439.5,19.5C 446.167,19.5 452.833,19.5 459.5,19.5C 459.5,26.1667 459.5,32.8333 459.5,39.5C 466.167,39.5 472.833,39.5 479.5,39.5C 479.5,32.8333 479.5,26.1667 479.5,19.5C 486.167,19.5 492.833,19.5 499.5,19.5C 499.5,26.1667 499.5,32.8333 499.5,39.5C 506.167,39.5 512.833,39.5 519.5,39.5C 519.5,43.1667 519.5,46.8333 519.5,50.5C 459.501,37.2479 399.501,37.2479 339.5,50.5C 339.5,46.8333 339.5,43.1667 339.5,39.5C 346.167,39.5 352.833,39.5 359.5,39.5C 359.5,32.8333 359.5,26.1667 359.5,19.5 Z"/></g>
<g><path style="opacity:1" fill="#fefffe" d="M 419.5,19.5 C 426.167,19.5 432.833,19.5 439.5,19.5C 439.5,26.1667 439.5,32.8333 439.5,39.5C 432.833,39.5 426.167,39.5 419.5,39.5C 419.5,32.8333 419.5,26.1667 419.5,19.5 Z"/></g>
<g><path style="opacity:1" fill="#fefffe" d="M 379.5,19.5 C 386.167,19.5 392.833,19.5 399.5,19.5C 399.5,26.1667 399.5,32.8333 399.5,39.5C 392.833,39.5 386.167,39.5 379.5,39.5C 379.5,32.8333 379.5,26.1667 379.5,19.5 Z"/></g>
<g><path style="opacity:1" fill="#fefffe" d="M 459.5,19.5 C 466.167,19.5 472.833,19.5 479.5,19.5C 479.5,26.1667 479.5,32.8333 479.5,39.5C 472.833,39.5 466.167,39.5 459.5,39.5C 459.5,32.8333 459.5,26.1667 459.5,19.5 Z"/></g>
<g><path style="opacity:1" fill="#fefffe" d="M 499.5,19.5 C 506.167,19.5 512.833,19.5 519.5,19.5C 519.5,26.1667 519.5,32.8333 519.5,39.5C 512.833,39.5 506.167,39.5 499.5,39.5C 499.5,32.8333 499.5,26.1667 499.5,19.5 Z"/></g>
<g><path style="opacity:1" fill="#edeeed" d="M 519.5,19.5 C 526.167,19.5 532.833,19.5 539.5,19.5C 539.5,26.1667 539.5,32.8333 539.5,39.5C 532.833,39.5 526.167,39.5 519.5,39.5C 519.5,32.8333 519.5,26.1667 519.5,19.5 Z"/></g>
<g><path style="opacity:1" fill="#fefffe" d="M 539.5,19.5 C 546.167,19.5 552.833,19.5 559.5,19.5C 559.5,26.1667 559.5,32.8333 559.5,39.5C 552.833,39.5 546.167,39.5 539.5,39.5C 539.5,32.8333 539.5,26.1667 539.5,19.5 Z"/></g>
<g><path style="opacity:1" fill="#edeeed" d="M 559.5,19.5 C 566.167,19.5 572.833,19.5 579.5,19.5C 579.5,26.1667 579.5,32.8333 579.5,39.5C 572.833,39.5 566.167,39.5 559.5,39.5C 559.5,32.8333 559.5,26.1667 559.5,19.5 Z"/></g>
<g><path style="opacity:1" fill="#fefffe" d="M 579.5,19.5 C 586.167,19.5 592.833,19.5 599.5,19.5C 599.5,26.1667 599.5,32.8333 599.5,39.5C 592.833,39.5 586.167,39.5 579.5,39.5C 579.5,32.8333 579.5,26.1667 579.5,19.5 Z"/></g>
<g><path style="opacity:1" fill="#edeeed" d="M 599.5,19.5 C 606.167,19.5 612.833,19.5 619.5,19.5C 619.5,26.1667 619.5,32.8333 619.5,39.5C 612.833,39.5 606.167,39.5 599.5,39.5C 599.5,32.8333 599.5,26.1667 599.5,19.5 Z"/></g>
<g><path style="opacity:1" fill="#fefffe" d="M 619.5,19.5 C 626.167,19.5 632.833,19.5 639.5,19.5C 639.5,26.1667 639.5,32.8333 639.5,39.5C 632.833,39.5 626.167,39.5 619.5,39.5C 619.5,32.8333 619.5,26.1667 619.5,19.5 Z"/></g>
<g><path style="opacity:1" fill="#edeeed" d="M 639.5,19.5 C 646.167,19.5 652.833,19.5 659.5,19.5C 659.5,26.1667 659.5,32.8333 659.5,39.5C 652.833,39.5 646.167,39.5 639.5,39.5C 639.5,32.8333 639.5,26.1667 639.5,19.5 Z"/></g>
<g><path style="opacity:1" fill="#fefffe" d="M 659.5,19.5 C 666.167,19.5 672.833,19.5 679.5,19.5C 679.5,26.1667 679.5,32.8333 679.5,39.5C 672.833,39.5 666.167,39.5 659.5,39.5C 659.5,32.8333 659.5,26.1667 659.5,19.5 Z"/></g>
<g><path style="opacity:1" fill="#edeeed" d="M 679.5,19.5 C 686.167,19.5 692.833,19.5 699.5,19.5C 699.5,26.1667 699.5,32.8333 699.5,39.5C 692.833,39.5 686.167,39.5 679.5,39.5C 679.5,32.8333 679.5,26.1667 679.5,19.5 Z"/></g>
<g><path style="opacity:1" fill="#fefffe" d="M 699.5,19.5 C 706.167,19.5 712.833,19.5 719.5,19.5C 719.5,26.1667 719.5,32.8333 719.5,39.5C 712.833,39.5 706.167,39.5 699.5,39.5C 699.5,32.8333 699.5,26.1667 699.5,19.5 Z"/></g>
<g><path style="opacity:1" fill="#edeeed" d="M 719.5,19.5 C 726.167,19.5 732.833,19.5 739.5,19.5C 739.5,26.1667 739.5,32.8333 739.5,39.5C 732.833,39.5 726.167,39.5 719.5,39.5C 719.5,32.8333 719.5,26.1667 719.5,19.5 Z"/></g>
<g><path style="opacity:1" fill="#fefffe" d="M 739.5,19.5 C 746.167,19.5 752.833,19.5 759.5,19.5C 759.5,26.1667 759.5,32.8333 759.5,39.5C 752.833,39.5 746.167,39.5 739.5,39.5C 739.5,32.8333 739.5,26.1667 739.5,19.5 Z"/></g>
<g><path style="opacity:1" fill="#edeeed" d="M 759.5,19.5 C 766.167,19.5 772.833,19.5 779.5,19.5C 779.5,26.1667 779.5,32.8333 779.5,39.5C 772.833,39.5 766.167,39.5 759.5,39.5C 759.5,32.8333 759.5,26.1667 759.5,19.5 Z"/></g>
<g><path style="opacity:1" fill="#fefffe" d="M 779.5,19.5 C 786.167,19.5 792.833,19.5 799.5,19.5C 799.5,26.1667 799.5,32.8333 799.5,39.5C 792.833,39.5 786.167,39.5 779.5,39.5C 779.5,32.8333 779.5,26.1667 779.5,19.5 Z"/></g>
<g><path style="opacity:1" fill="#edeeed" d="M 799.5,19.5 C 806.167,19.5 812.833,19.5 819.5,19.5C 819.5,26.1667 819.5,32.8333 819.5,39.5C 812.833,39.5 806.167,39.5 799.5,39.5C 799.5,32.8333 799.5,26.1667 799.5,19.5 Z"/></g>
<g><path style="opacity:1" fill="#fefffe" d="M 819.5,19.5 C 826.167,19.5 832.833,19.5 839.5,19.5C 839.5,26.1667 839.5,32.8333 839.5,39.5C 832.833,39.5 826.167,39.5 819.5,39.5C 819.5,32.8333 819.5,26.1667 819.5,19.5 Z"/></g>
<g><path style="opacity:1" fill="#edeeed" d="M 839.5,19.5 C 846.167,19.5 852.833,19.5 859.5,19.5C 859.5,26.1667 859.5,32.8333 859.5,39.5C 852.833,39.5 846.167,39.5 839.5,39.5C 839.5,32.8333 839.5,26.1667 839.5,19.5 Z"/></g>
<g><path style="opacity:1" fill="#fefffe" d="M -0.5,39.5 C 6.16667,39.5 12.8333,39.5 19.5,39.5C 19.5,46.1667 19.5,52.8333 19.5,59.5C 12.8333,59.5 6.16667,59.5 -0.5,59.5C -0.5,52.8333 -0.5,46.1667 -0.5,39.5 Z"/></g>
<g><path style="opacity:1" fill="#edeeed" d="M 19.5,39.5 C 26.1667,39.5 32.8333,39.5 39.5,39.5C 39.5,46.1667 39.5,52.8333 39.5,59.5C 32.8333,59.5 26.1667,59.5 19.5,59.5C 19.5,52.8333 19.5,46.1667 19.5,39.5 Z"/></g>
<g><path style="opacity:1" fill="#fefffe" d="M 39.5,39.5 C 46.1667,39.5 52.8333,39.5 59.5,39.5C 59.5,46.1667 59.5,52.8333 59.5,59.5C 52.8333,59.5 46.1667,59.5 39.5,59.5C 39.5,52.8333 39.5,46.1667 39.5,39.5 Z"/></g>
<g><path style="opacity:1" fill="#edeeed" d="M 59.5,39.5 C 66.1667,39.5 72.8333,39.5 79.5,39.5C 79.5,46.1667 79.5,52.8333 79.5,59.5C 72.8333,59.5 66.1667,59.5 59.5,59.5C 59.5,52.8333 59.5,46.1667 59.5,39.5 Z"/></g>
<g><path style="opacity:1" fill="#fefffe" d="M 79.5,39.5 C 86.1667,39.5 92.8333,39.5 99.5,39.5C 99.5,46.1667 99.5,52.8333 99.5,59.5C 92.8333,59.5 86.1667,59.5 79.5,59.5C 79.5,52.8333 79.5,46.1667 79.5,39.5 Z"/></g>
<g><path style="opacity:1" fill="#edeeed" d="M 99.5,39.5 C 106.167,39.5 112.833,39.5 119.5,39.5C 119.5,46.1667 119.5,52.8333 119.5,59.5C 112.833,59.5 106.167,59.5 99.5,59.5C 99.5,52.8333 99.5,46.1667 99.5,39.5 Z"/></g>
<g><path style="opacity:1" fill="#fefffe" d="M 119.5,39.5 C 126.167,39.5 132.833,39.5 139.5,39.5C 139.5,46.1667 139.5,52.8333 139.5,59.5C 132.833,59.5 126.167,59.5 119.5,59.5C 119.5,52.8333 119.5,46.1667 119.5,39.5 Z"/></g>
<g><path style="opacity:1" fill="#edeeed" d="M 139.5,39.5 C 146.167,39.5 152.833,39.5 159.5,39.5C 159.5,46.1667 159.5,52.8333 159.5,59.5C 152.833,59.5 146.167,59.5 139.5,59.5C 139.5,52.8333 139.5,46.1667 139.5,39.5 Z"/></g>
<g><path style="opacity:1" fill="#fefffe" d="M 159.5,39.5 C 166.167,39.5 172.833,39.5 179.5,39.5C 179.5,46.1667 179.5,52.8333 179.5,59.5C 172.833,59.5 166.167,59.5 159.5,59.5C 159.5,52.8333 159.5,46.1667 159.5,39.5 Z"/></g>
<g><path style="opacity:1" fill="#edeeed" d="M 179.5,39.5 C 186.167,39.5 192.833,39.5 199.5,39.5C 199.5,46.1667 199.5,52.8333 199.5,59.5C 192.833,59.5 186.167,59.5 179.5,59.5C 179.5,52.8333 179.5,46.1667 179.5,39.5 Z"/></g>
<g><path style="opacity:1" fill="#fefffe" d="M 199.5,39.5 C 206.167,39.5 212.833,39.5 219.5,39.5C 219.5,46.1667 219.5,52.8333 219.5,59.5C 212.833,59.5 206.167,59.5 199.5,59.5C 199.5,52.8333 199.5,46.1667 199.5,39.5 Z"/></g>
<g><path style="opacity:1" fill="#edeeed" d="M 219.5,39.5 C 226.167,39.5 232.833,39.5 239.5,39.5C 239.5,46.1667 239.5,52.8333 239.5,59.5C 232.833,59.5 226.167,59.5 219.5,59.5C 219.5,52.8333 219.5,46.1667 219.5,39.5 Z"/></g>
<g><path style="opacity:1" fill="#fefffe" d="M 239.5,39.5 C 246.167,39.5 252.833,39.5 259.5,39.5C 259.5,46.1667 259.5,52.8333 259.5,59.5C 252.833,59.5 246.167,59.5 239.5,59.5C 239.5,52.8333 239.5,46.1667 239.5,39.5 Z"/></g>
<g><path style="opacity:1" fill="#edeeed" d="M 259.5,39.5 C 266.167,39.5 272.833,39.5 279.5,39.5C 279.5,46.1667 279.5,52.8333 279.5,59.5C 272.833,59.5 266.167,59.5 259.5,59.5C 259.5,52.8333 259.5,46.1667 259.5,39.5 Z"/></g>
<g><path style="opacity:1" fill="#fefffe" d="M 279.5,39.5 C 286.167,39.5 292.833,39.5 299.5,39.5C 299.5,46.1667 299.5,52.8333 299.5,59.5C 292.833,59.5 286.167,59.5 279.5,59.5C 279.5,52.8333 279.5,46.1667 279.5,39.5 Z"/></g>
<g><path style="opacity:1" fill="#fefdfc" d="M 319.5,39.5 C 326.167,39.5 332.833,39.5 339.5,39.5C 339.5,43.1667 339.5,46.8333 339.5,50.5C 332.938,52.4738 326.271,54.1405 319.5,55.5C 319.5,50.1667 319.5,44.8333 319.5,39.5 Z"/></g>
<g><path style="opacity:1" fill="#fffcfa" d="M 519.5,39.5 C 526.167,39.5 532.833,39.5 539.5,39.5C 539.5,44.8333 539.5,50.1667 539.5,55.5C 532.623,54.1982 525.956,52.5315 519.5,50.5C 519.5,46.8333 519.5,43.1667 519.5,39.5 Z"/></g>
<g><path style="opacity:1" fill="#eeebea" d="M 539.5,39.5 C 546.167,39.5 552.833,39.5 559.5,39.5C 559.5,46.1667 559.5,52.8333 559.5,59.5C 566.167,59.5 572.833,59.5 579.5,59.5C 579.5,62.8333 579.5,66.1667 579.5,69.5C 566.156,64.609 552.823,59.9424 539.5,55.5C 539.5,50.1667 539.5,44.8333 539.5,39.5 Z"/></g>
<g><path style="opacity:1" fill="#fefffe" d="M 559.5,39.5 C 566.167,39.5 572.833,39.5 579.5,39.5C 579.5,46.1667 579.5,52.8333 579.5,59.5C 572.833,59.5 566.167,59.5 559.5,59.5C 559.5,52.8333 559.5,46.1667 559.5,39.5 Z"/></g>
<g><path style="opacity:1" fill="#edeeed" d="M 579.5,39.5 C 586.167,39.5 592.833,39.5 599.5,39.5C 599.5,46.1667 599.5,52.8333 599.5,59.5C 592.833,59.5 586.167,59.5 579.5,59.5C 579.5,52.8333 579.5,46.1667 579.5,39.5 Z"/></g>
<g><path style="opacity:1" fill="#fefffe" d="M 599.5,39.5 C 606.167,39.5 612.833,39.5 619.5,39.5C 619.5,46.1667 619.5,52.8333 619.5,59.5C 612.833,59.5 606.167,59.5 599.5,59.5C 599.5,52.8333 599.5,46.1667 599.5,39.5 Z"/></g>
<g><path style="opacity:1" fill="#edeeed" d="M 619.5,39.5 C 626.167,39.5 632.833,39.5 639.5,39.5C 639.5,46.1667 639.5,52.8333 639.5,59.5C 632.833,59.5 626.167,59.5 619.5,59.5C 619.5,52.8333 619.5,46.1667 619.5,39.5 Z"/></g>
<g><path style="opacity:1" fill="#fefffe" d="M 639.5,39.5 C 646.167,39.5 652.833,39.5 659.5,39.5C 659.5,46.1667 659.5,52.8333 659.5,59.5C 652.833,59.5 646.167,59.5 639.5,59.5C 639.5,52.8333 639.5,46.1667 639.5,39.5 Z"/></g>
<g><path style="opacity:1" fill="#edeeed" d="M 659.5,39.5 C 666.167,39.5 672.833,39.5 679.5,39.5C 679.5,46.1667 679.5,52.8333 679.5,59.5C 672.833,59.5 666.167,59.5 659.5,59.5C 659.5,52.8333 659.5,46.1667 659.5,39.5 Z"/></g>
<g><path style="opacity:1" fill="#fefffe" d="M 679.5,39.5 C 686.167,39.5 692.833,39.5 699.5,39.5C 699.5,46.1667 699.5,52.8333 699.5,59.5C 692.833,59.5 686.167,59.5 679.5,59.5C 679.5,52.8333 679.5,46.1667 679.5,39.5 Z"/></g>
<g><path style="opacity:1" fill="#edeeed" d="M 699.5,39.5 C 706.167,39.5 712.833,39.5 719.5,39.5C 719.5,46.1667 719.5,52.8333 719.5,59.5C 712.833,59.5 706.167,59.5 699.5,59.5C 699.5,52.8333 699.5,46.1667 699.5,39.5 Z"/></g>
<g><path style="opacity:1" fill="#fefffe" d="M 719.5,39.5 C 726.167,39.5 732.833,39.5 739.5,39.5C 739.5,46.1667 739.5,52.8333 739.5,59.5C 732.833,59.5 726.167,59.5 719.5,59.5C 719.5,52.8333 719.5,46.1667 719.5,39.5 Z"/></g>
<g><path style="opacity:1" fill="#edeeed" d="M 739.5,39.5 C 746.167,39.5 752.833,39.5 759.5,39.5C 759.5,46.1667 759.5,52.8333 759.5,59.5C 752.833,59.5 746.167,59.5 739.5,59.5C 739.5,52.8333 739.5,46.1667 739.5,39.5 Z"/></g>
<g><path style="opacity:1" fill="#fefffe" d="M 759.5,39.5 C 766.167,39.5 772.833,39.5 779.5,39.5C 779.5,46.1667 779.5,52.8333 779.5,59.5C 772.833,59.5 766.167,59.5 759.5,59.5C 759.5,52.8333 759.5,46.1667 759.5,39.5 Z"/></g>
<g><path style="opacity:1" fill="#edeeed" d="M 779.5,39.5 C 786.167,39.5 792.833,39.5 799.5,39.5C 799.5,46.1667 799.5,52.8333 799.5,59.5C 792.833,59.5 786.167,59.5 779.5,59.5C 779.5,52.8333 779.5,46.1667 779.5,39.5 Z"/></g>
<g><path style="opacity:1" fill="#fefffe" d="M 799.5,39.5 C 806.167,39.5 812.833,39.5 819.5,39.5C 819.5,46.1667 819.5,52.8333 819.5,59.5C 812.833,59.5 806.167,59.5 799.5,59.5C 799.5,52.8333 799.5,46.1667 799.5,39.5 Z"/></g>
<g><path style="opacity:1" fill="#edeeed" d="M 819.5,39.5 C 826.167,39.5 832.833,39.5 839.5,39.5C 839.5,46.1667 839.5,52.8333 839.5,59.5C 832.833,59.5 826.167,59.5 819.5,59.5C 819.5,52.8333 819.5,46.1667 819.5,39.5 Z"/></g>
<g><path style="opacity:1" fill="#fefffe" d="M 839.5,39.5 C 846.167,39.5 852.833,39.5 859.5,39.5C 859.5,46.1667 859.5,52.8333 859.5,59.5C 852.833,59.5 846.167,59.5 839.5,59.5C 839.5,52.8333 839.5,46.1667 839.5,39.5 Z"/></g>
<g><path style="opacity:1" fill="#f26e24" d="M 519.5,50.5 C 525.956,52.5315 532.623,54.1982 539.5,55.5C 552.823,59.9424 566.156,64.609 579.5,69.5C 585.65,72.4028 591.984,75.0695 598.5,77.5C 695.997,124.988 764.664,198.988 804.5,299.5C 806.457,306.374 808.79,313.041 811.5,319.5C 813.362,326.426 815.028,333.426 816.5,340.5C 816.41,343.152 817.076,345.485 818.5,347.5C 821.463,360.388 823.796,373.388 825.5,386.5C 825.376,392.069 826.043,397.402 827.5,402.5C 830.302,431.18 829.968,459.847 826.5,488.5C 825.028,492.919 824.362,497.586 824.5,502.5C 823.515,506.076 822.848,509.742 822.5,513.5C 819.271,528.831 815.604,544.164 811.5,559.5C 809.065,563.799 807.398,568.466 806.5,573.5C 800.437,588.998 793.77,604.331 786.5,619.5C 779.408,632.689 772.075,645.689 764.5,658.5C 731.319,708.348 689.319,749.015 638.5,780.5C 625.593,787.785 612.593,794.785 599.5,801.5C 591.745,804.854 584.078,808.188 576.5,811.5C 563.995,815.667 551.661,820 539.5,824.5C 507.837,832.42 475.837,837.42 443.5,839.5C 432.833,839.5 422.167,839.5 411.5,839.5C 405.3,838.757 398.966,838.09 392.5,837.5C 387.402,836.043 382.069,835.376 376.5,835.5C 363.388,833.796 350.388,831.463 337.5,828.5C 335.485,827.076 333.152,826.41 330.5,826.5C 326.833,825.833 323.167,825.167 319.5,824.5C 306.171,820.056 292.837,815.389 279.5,810.5C 273.073,807.128 266.407,804.128 259.5,801.5C 246.412,794.787 233.412,787.787 220.5,780.5C 170.3,748.634 128.634,707.968 95.5,658.5C 87.6465,646.125 80.3131,633.458 73.5,620.5C 66.5772,605.998 60.2438,591.331 54.5,576.5C 52.8745,570.619 50.8745,564.953 48.5,559.5C 46.0405,550.537 43.7072,541.537 41.5,532.5C 41.5905,529.848 40.9238,527.515 39.5,525.5C 39.2474,521.96 38.5808,518.627 37.5,515.5C 29.9864,473.357 28.653,431.024 33.5,388.5C 35.0878,378.942 36.7545,369.276 38.5,359.5C 41.5209,346.083 44.8543,332.75 48.5,319.5C 51.2042,313.059 53.5375,306.392 55.5,299.5C 105.385,176.949 193.385,95.6152 319.5,55.5C 326.271,54.1405 332.938,52.4738 339.5,50.5C 399.501,37.2479 459.501,37.2479 519.5,50.5 Z"/></g>
<g><path style="opacity:1" fill="#edeeed" d="M -0.5,59.5 C 6.16667,59.5 12.8333,59.5 19.5,59.5C 19.5,66.1667 19.5,72.8333 19.5,79.5C 12.8333,79.5 6.16667,79.5 -0.5,79.5C -0.5,72.8333 -0.5,66.1667 -0.5,59.5 Z"/></g>
<g><path style="opacity:1" fill="#fefffe" d="M 19.5,59.5 C 26.1667,59.5 32.8333,59.5 39.5,59.5C 39.5,66.1667 39.5,72.8333 39.5,79.5C 32.8333,79.5 26.1667,79.5 19.5,79.5C 19.5,72.8333 19.5,66.1667 19.5,59.5 Z"/></g>
<g><path style="opacity:1" fill="#edeeed" d="M 39.5,59.5 C 46.1667,59.5 52.8333,59.5 59.5,59.5C 59.5,66.1667 59.5,72.8333 59.5,79.5C 52.8333,79.5 46.1667,79.5 39.5,79.5C 39.5,72.8333 39.5,66.1667 39.5,59.5 Z"/></g>
<g><path style="opacity:1" fill="#fefffe" d="M 59.5,59.5 C 66.1667,59.5 72.8333,59.5 79.5,59.5C 79.5,66.1667 79.5,72.8333 79.5,79.5C 72.8333,79.5 66.1667,79.5 59.5,79.5C 59.5,72.8333 59.5,66.1667 59.5,59.5 Z"/></g>
<g><path style="opacity:1" fill="#edeeed" d="M 79.5,59.5 C 86.1667,59.5 92.8333,59.5 99.5,59.5C 99.5,66.1667 99.5,72.8333 99.5,79.5C 92.8333,79.5 86.1667,79.5 79.5,79.5C 79.5,72.8333 79.5,66.1667 79.5,59.5 Z"/></g>
<g><path style="opacity:1" fill="#fefffe" d="M 99.5,59.5 C 106.167,59.5 112.833,59.5 119.5,59.5C 119.5,66.1667 119.5,72.8333 119.5,79.5C 112.833,79.5 106.167,79.5 99.5,79.5C 99.5,72.8333 99.5,66.1667 99.5,59.5 Z"/></g>
<g><path style="opacity:1" fill="#edeeed" d="M 119.5,59.5 C 126.167,59.5 132.833,59.5 139.5,59.5C 139.5,66.1667 139.5,72.8333 139.5,79.5C 132.833,79.5 126.167,79.5 119.5,79.5C 119.5,72.8333 119.5,66.1667 119.5,59.5 Z"/></g>
<g><path style="opacity:1" fill="#fefffe" d="M 139.5,59.5 C 146.167,59.5 152.833,59.5 159.5,59.5C 159.5,66.1667 159.5,72.8333 159.5,79.5C 152.833,79.5 146.167,79.5 139.5,79.5C 139.5,72.8333 139.5,66.1667 139.5,59.5 Z"/></g>
<g><path style="opacity:1" fill="#edeeed" d="M 159.5,59.5 C 166.167,59.5 172.833,59.5 179.5,59.5C 179.5,66.1667 179.5,72.8333 179.5,79.5C 172.833,79.5 166.167,79.5 159.5,79.5C 159.5,72.8333 159.5,66.1667 159.5,59.5 Z"/></g>
<g><path style="opacity:1" fill="#fefffe" d="M 179.5,59.5 C 186.167,59.5 192.833,59.5 199.5,59.5C 199.5,66.1667 199.5,72.8333 199.5,79.5C 192.833,79.5 186.167,79.5 179.5,79.5C 179.5,72.8333 179.5,66.1667 179.5,59.5 Z"/></g>
<g><path style="opacity:1" fill="#edeeed" d="M 199.5,59.5 C 206.167,59.5 212.833,59.5 219.5,59.5C 219.5,66.1667 219.5,72.8333 219.5,79.5C 212.833,79.5 206.167,79.5 199.5,79.5C 199.5,72.8333 199.5,66.1667 199.5,59.5 Z"/></g>
<g><path style="opacity:1" fill="#fefffe" d="M 219.5,59.5 C 226.167,59.5 232.833,59.5 239.5,59.5C 239.5,66.1667 239.5,72.8333 239.5,79.5C 232.833,79.5 226.167,79.5 219.5,79.5C 219.5,72.8333 219.5,66.1667 219.5,59.5 Z"/></g>
<g><path style="opacity:1" fill="#fffcfb" d="M 579.5,59.5 C 586.167,59.5 592.833,59.5 599.5,59.5C 599.823,65.69 599.49,71.69 598.5,77.5C 591.984,75.0695 585.65,72.4028 579.5,69.5C 579.5,66.1667 579.5,62.8333 579.5,59.5 Z"/></g>
<g><path style="opacity:1" fill="#fefffe" d="M 619.5,59.5 C 626.167,59.5 632.833,59.5 639.5,59.5C 639.5,66.1667 639.5,72.8333 639.5,79.5C 632.833,79.5 626.167,79.5 619.5,79.5C 619.5,72.8333 619.5,66.1667 619.5,59.5 Z"/></g>
<g><path style="opacity:1" fill="#edeeed" d="M 639.5,59.5 C 646.167,59.5 652.833,59.5 659.5,59.5C 659.5,66.1667 659.5,72.8333 659.5,79.5C 652.833,79.5 646.167,79.5 639.5,79.5C 639.5,72.8333 639.5,66.1667 639.5,59.5 Z"/></g>
<g><path style="opacity:1" fill="#fefffe" d="M 659.5,59.5 C 666.167,59.5 672.833,59.5 679.5,59.5C 679.5,66.1667 679.5,72.8333 679.5,79.5C 672.833,79.5 666.167,79.5 659.5,79.5C 659.5,72.8333 659.5,66.1667 659.5,59.5 Z"/></g>
<g><path style="opacity:1" fill="#edeeed" d="M 679.5,59.5 C 686.167,59.5 692.833,59.5 699.5,59.5C 699.5,66.1667 699.5,72.8333 699.5,79.5C 692.833,79.5 686.167,79.5 679.5,79.5C 679.5,72.8333 679.5,66.1667 679.5,59.5 Z"/></g>
<g><path style="opacity:1" fill="#fefffe" d="M 699.5,59.5 C 706.167,59.5 712.833,59.5 719.5,59.5C 719.5,66.1667 719.5,72.8333 719.5,79.5C 712.833,79.5 706.167,79.5 699.5,79.5C 699.5,72.8333 699.5,66.1667 699.5,59.5 Z"/></g>
<g><path style="opacity:1" fill="#edeeed" d="M 719.5,59.5 C 726.167,59.5 732.833,59.5 739.5,59.5C 739.5,66.1667 739.5,72.8333 739.5,79.5C 732.833,79.5 726.167,79.5 719.5,79.5C 719.5,72.8333 719.5,66.1667 719.5,59.5 Z"/></g>
<g><path style="opacity:1" fill="#fefffe" d="M 739.5,59.5 C 746.167,59.5 752.833,59.5 759.5,59.5C 759.5,66.1667 759.5,72.8333 759.5,79.5C 752.833,79.5 746.167,79.5 739.5,79.5C 739.5,72.8333 739.5,66.1667 739.5,59.5 Z"/></g>
<g><path style="opacity:1" fill="#edeeed" d="M 759.5,59.5 C 766.167,59.5 772.833,59.5 779.5,59.5C 779.5,66.1667 779.5,72.8333 779.5,79.5C 772.833,79.5 766.167,79.5 759.5,79.5C 759.5,72.8333 759.5,66.1667 759.5,59.5 Z"/></g>
<g><path style="opacity:1" fill="#fefffe" d="M 779.5,59.5 C 786.167,59.5 792.833,59.5 799.5,59.5C 799.5,66.1667 799.5,72.8333 799.5,79.5C 792.833,79.5 786.167,79.5 779.5,79.5C 779.5,72.8333 779.5,66.1667 779.5,59.5 Z"/></g>
<g><path style="opacity:1" fill="#edeeed" d="M 799.5,59.5 C 806.167,59.5 812.833,59.5 819.5,59.5C 819.5,66.1667 819.5,72.8333 819.5,79.5C 812.833,79.5 806.167,79.5 799.5,79.5C 799.5,72.8333 799.5,66.1667 799.5,59.5 Z"/></g>
<g><path style="opacity:1" fill="#fefffe" d="M 819.5,59.5 C 826.167,59.5 832.833,59.5 839.5,59.5C 839.5,66.1667 839.5,72.8333 839.5,79.5C 832.833,79.5 826.167,79.5 819.5,79.5C 819.5,72.8333 819.5,66.1667 819.5,59.5 Z"/></g>
<g><path style="opacity:1" fill="#edeeed" d="M 839.5,59.5 C 846.167,59.5 852.833,59.5 859.5,59.5C 859.5,66.1667 859.5,72.8333 859.5,79.5C 852.833,79.5 846.167,79.5 839.5,79.5C 839.5,72.8333 839.5,66.1667 839.5,59.5 Z"/></g>
<g><path style="opacity:1" fill="#fefffe" d="M -0.5,79.5 C 6.16667,79.5 12.8333,79.5 19.5,79.5C 19.5,86.1667 19.5,92.8333 19.5,99.5C 12.8333,99.5 6.16667,99.5 -0.5,99.5C -0.5,92.8333 -0.5,86.1667 -0.5,79.5 Z"/></g>
<g><path style="opacity:1" fill="#edeeed" d="M 19.5,79.5 C 26.1667,79.5 32.8333,79.5 39.5,79.5C 39.5,86.1667 39.5,92.8333 39.5,99.5C 32.8333,99.5 26.1667,99.5 19.5,99.5C 19.5,92.8333 19.5,86.1667 19.5,79.5 Z"/></g>
<g><path style="opacity:1" fill="#fefffe" d="M 39.5,79.5 C 46.1667,79.5 52.8333,79.5 59.5,79.5C 59.5,86.1667 59.5,92.8333 59.5,99.5C 52.8333,99.5 46.1667,99.5 39.5,99.5C 39.5,92.8333 39.5,86.1667 39.5,79.5 Z"/></g>
<g><path style="opacity:1" fill="#edeeed" d="M 59.5,79.5 C 66.1667,79.5 72.8333,79.5 79.5,79.5C 79.5,86.1667 79.5,92.8333 79.5,99.5C 72.8333,99.5 66.1667,99.5 59.5,99.5C 59.5,92.8333 59.5,86.1667 59.5,79.5 Z"/></g>
<g><path style="opacity:1" fill="#fefffe" d="M 79.5,79.5 C 86.1667,79.5 92.8333,79.5 99.5,79.5C 99.5,86.1667 99.5,92.8333 99.5,99.5C 92.8333,99.5 86.1667,99.5 79.5,99.5C 79.5,92.8333 79.5,86.1667 79.5,79.5 Z"/></g>
<g><path style="opacity:1" fill="#edeeed" d="M 99.5,79.5 C 106.167,79.5 112.833,79.5 119.5,79.5C 119.5,86.1667 119.5,92.8333 119.5,99.5C 112.833,99.5 106.167,99.5 99.5,99.5C 99.5,92.8333 99.5,86.1667 99.5,79.5 Z"/></g>
<g><path style="opacity:1" fill="#fefffe" d="M 119.5,79.5 C 126.167,79.5 132.833,79.5 139.5,79.5C 139.5,86.1667 139.5,92.8333 139.5,99.5C 132.833,99.5 126.167,99.5 119.5,99.5C 119.5,92.8333 119.5,86.1667 119.5,79.5 Z"/></g>
<g><path style="opacity:1" fill="#edeeed" d="M 139.5,79.5 C 146.167,79.5 152.833,79.5 159.5,79.5C 159.5,86.1667 159.5,92.8333 159.5,99.5C 152.833,99.5 146.167,99.5 139.5,99.5C 139.5,92.8333 139.5,86.1667 139.5,79.5 Z"/></g>
<g><path style="opacity:1" fill="#fefffe" d="M 159.5,79.5 C 166.167,79.5 172.833,79.5 179.5,79.5C 179.5,86.1667 179.5,92.8333 179.5,99.5C 172.833,99.5 166.167,99.5 159.5,99.5C 159.5,92.8333 159.5,86.1667 159.5,79.5 Z"/></g>
<g><path style="opacity:1" fill="#edeeed" d="M 179.5,79.5 C 186.167,79.5 192.833,79.5 199.5,79.5C 199.5,86.1667 199.5,92.8333 199.5,99.5C 192.833,99.5 186.167,99.5 179.5,99.5C 179.5,92.8333 179.5,86.1667 179.5,79.5 Z"/></g>
<g><path style="opacity:1" fill="#fefffe" d="M 199.5,79.5 C 206.167,79.5 212.833,79.5 219.5,79.5C 219.5,86.1667 219.5,92.8333 219.5,99.5C 212.833,99.5 206.167,99.5 199.5,99.5C 199.5,92.8333 199.5,86.1667 199.5,79.5 Z"/></g>
<g><path style="opacity:1" fill="#edeeed" d="M -0.5,99.5 C 6.16667,99.5 12.8333,99.5 19.5,99.5C 19.5,106.167 19.5,112.833 19.5,119.5C 12.8333,119.5 6.16667,119.5 -0.5,119.5C -0.5,112.833 -0.5,106.167 -0.5,99.5 Z"/></g>
<g><path style="opacity:1" fill="#fefffe" d="M 19.5,99.5 C 26.1667,99.5 32.8333,99.5 39.5,99.5C 39.5,106.167 39.5,112.833 39.5,119.5C 32.8333,119.5 26.1667,119.5 19.5,119.5C 19.5,112.833 19.5,106.167 19.5,99.5 Z"/></g>
<g><path style="opacity:1" fill="#edeeed" d="M 39.5,99.5 C 46.1667,99.5 52.8333,99.5 59.5,99.5C 59.5,106.167 59.5,112.833 59.5,119.5C 52.8333,119.5 46.1667,119.5 39.5,119.5C 39.5,112.833 39.5,106.167 39.5,99.5 Z"/></g>
<g><path style="opacity:1" fill="#fefffe" d="M 59.5,99.5 C 66.1667,99.5 72.8333,99.5 79.5,99.5C 79.5,106.167 79.5,112.833 79.5,119.5C 72.8333,119.5 66.1667,119.5 59.5,119.5C 59.5,112.833 59.5,106.167 59.5,99.5 Z"/></g>
<g><path style="opacity:1" fill="#edeeed" d="M 79.5,99.5 C 86.1667,99.5 92.8333,99.5 99.5,99.5C 99.5,106.167 99.5,112.833 99.5,119.5C 92.8333,119.5 86.1667,119.5 79.5,119.5C 79.5,112.833 79.5,106.167 79.5,99.5 Z"/></g>
<g><path style="opacity:1" fill="#fefffe" d="M 99.5,99.5 C 106.167,99.5 112.833,99.5 119.5,99.5C 119.5,106.167 119.5,112.833 119.5,119.5C 112.833,119.5 106.167,119.5 99.5,119.5C 99.5,112.833 99.5,106.167 99.5,99.5 Z"/></g>
<g><path style="opacity:1" fill="#edeeed" d="M 119.5,99.5 C 126.167,99.5 132.833,99.5 139.5,99.5C 139.5,106.167 139.5,112.833 139.5,119.5C 132.833,119.5 126.167,119.5 119.5,119.5C 119.5,112.833 119.5,106.167 119.5,99.5 Z"/></g>
<g><path style="opacity:1" fill="#fefffe" d="M 139.5,99.5 C 146.167,99.5 152.833,99.5 159.5,99.5C 159.5,106.167 159.5,112.833 159.5,119.5C 152.833,119.5 146.167,119.5 139.5,119.5C 139.5,112.833 139.5,106.167 139.5,99.5 Z"/></g>
<g><path style="opacity:1" fill="#fefffe" d="M -0.5,119.5 C 6.16667,119.5 12.8333,119.5 19.5,119.5C 19.5,126.167 19.5,132.833 19.5,139.5C 12.8333,139.5 6.16667,139.5 -0.5,139.5C -0.5,132.833 -0.5,126.167 -0.5,119.5 Z"/></g>
<g><path style="opacity:1" fill="#edeeed" d="M 19.5,119.5 C 26.1667,119.5 32.8333,119.5 39.5,119.5C 39.5,126.167 39.5,132.833 39.5,139.5C 32.8333,139.5 26.1667,139.5 19.5,139.5C 19.5,132.833 19.5,126.167 19.5,119.5 Z"/></g>
<g><path style="opacity:1" fill="#fefffe" d="M 39.5,119.5 C 46.1667,119.5 52.8333,119.5 59.5,119.5C 59.5,126.167 59.5,132.833 59.5,139.5C 52.8333,139.5 46.1667,139.5 39.5,139.5C 39.5,132.833 39.5,126.167 39.5,119.5 Z"/></g>
<g><path style="opacity:1" fill="#edeeed" d="M 59.5,119.5 C 66.1667,119.5 72.8333,119.5 79.5,119.5C 79.5,126.167 79.5,132.833 79.5,139.5C 72.8333,139.5 66.1667,139.5 59.5,139.5C 59.5,132.833 59.5,126.167 59.5,119.5 Z"/></g>
<g><path style="opacity:1" fill="#fefffe" d="M 79.5,119.5 C 86.1667,119.5 92.8333,119.5 99.5,119.5C 99.5,126.167 99.5,132.833 99.5,139.5C 92.8333,139.5 86.1667,139.5 79.5,139.5C 79.5,132.833 79.5,126.167 79.5,119.5 Z"/></g>
<g><path style="opacity:1" fill="#edeeed" d="M 99.5,119.5 C 106.167,119.5 112.833,119.5 119.5,119.5C 119.5,126.167 119.5,132.833 119.5,139.5C 112.833,139.5 106.167,139.5 99.5,139.5C 99.5,132.833 99.5,126.167 99.5,119.5 Z"/></g>
<g><path style="opacity:1" fill="#fefffe" d="M 119.5,119.5 C 126.167,119.5 132.833,119.5 139.5,119.5C 139.5,126.167 139.5,132.833 139.5,139.5C 132.833,139.5 126.167,139.5 119.5,139.5C 119.5,132.833 119.5,126.167 119.5,119.5 Z"/></g>
<g><path style="opacity:1" fill="#f6f5f4" d="M 299.5,39.5 C 306.167,39.5 312.833,39.5 319.5,39.5C 319.5,44.8333 319.5,50.1667 319.5,55.5C 193.385,95.6152 105.385,176.949 55.5,299.5C 50.1667,299.5 44.8333,299.5 39.5,299.5C 39.5,292.833 39.5,286.167 39.5,279.5C 46.1667,279.5 52.8333,279.5 59.5,279.5C 59.5,272.833 59.5,266.167 59.5,259.5C 59.5,252.833 59.5,246.167 59.5,239.5C 66.1667,239.5 72.8333,239.5 79.5,239.5C 79.5,232.833 79.5,226.167 79.5,219.5C 79.5,212.833 79.5,206.167 79.5,199.5C 79.5,192.833 79.5,186.167 79.5,179.5C 86.1667,179.5 92.8333,179.5 99.5,179.5C 99.5,172.833 99.5,166.167 99.5,159.5C 106.167,159.5 112.833,159.5 119.5,159.5C 119.5,152.833 119.5,146.167 119.5,139.5C 126.167,139.5 132.833,139.5 139.5,139.5C 139.5,132.833 139.5,126.167 139.5,119.5C 146.167,119.5 152.833,119.5 159.5,119.5C 159.5,112.833 159.5,106.167 159.5,99.5C 166.167,99.5 172.833,99.5 179.5,99.5C 186.167,99.5 192.833,99.5 199.5,99.5C 206.167,99.5 212.833,99.5 219.5,99.5C 219.5,92.8333 219.5,86.1667 219.5,79.5C 226.167,79.5 232.833,79.5 239.5,79.5C 239.5,72.8333 239.5,66.1667 239.5,59.5C 246.167,59.5 252.833,59.5 259.5,59.5C 266.167,59.5 272.833,59.5 279.5,59.5C 286.167,59.5 292.833,59.5 299.5,59.5C 299.5,52.8333 299.5,46.1667 299.5,39.5 Z"/></g>
<g><path style="opacity:1" fill="#edeeed" d="M -0.5,139.5 C 6.16667,139.5 12.8333,139.5 19.5,139.5C 19.5,146.167 19.5,152.833 19.5,159.5C 12.8333,159.5 6.16667,159.5 -0.5,159.5C -0.5,152.833 -0.5,146.167 -0.5,139.5 Z"/></g>
<g><path style="opacity:1" fill="#fefffe" d="M 19.5,139.5 C 26.1667,139.5 32.8333,139.5 39.5,139.5C 39.5,146.167 39.5,152.833 39.5,159.5C 32.8333,159.5 26.1667,159.5 19.5,159.5C 19.5,152.833 19.5,146.167 19.5,139.5 Z"/></g>
<g><path style="opacity:1" fill="#edeeed" d="M 39.5,139.5 C 46.1667,139.5 52.8333,139.5 59.5,139.5C 59.5,146.167 59.5,152.833 59.5,159.5C 52.8333,159.5 46.1667,159.5 39.5,159.5C 39.5,152.833 39.5,146.167 39.5,139.5 Z"/></g>
<g><path style="opacity:1" fill="#fefffe" d="M 59.5,139.5 C 66.1667,139.5 72.8333,139.5 79.5,139.5C 79.5,146.167 79.5,152.833 79.5,159.5C 72.8333,159.5 66.1667,159.5 59.5,159.5C 59.5,152.833 59.5,146.167 59.5,139.5 Z"/></g>
<g><path style="opacity:1" fill="#edeeed" d="M 79.5,139.5 C 86.1667,139.5 92.8333,139.5 99.5,139.5C 99.5,146.167 99.5,152.833 99.5,159.5C 92.8333,159.5 86.1667,159.5 79.5,159.5C 79.5,152.833 79.5,146.167 79.5,139.5 Z"/></g>
<g><path style="opacity:1" fill="#fefffe" d="M 99.5,139.5 C 106.167,139.5 112.833,139.5 119.5,139.5C 119.5,146.167 119.5,152.833 119.5,159.5C 112.833,159.5 106.167,159.5 99.5,159.5C 99.5,152.833 99.5,146.167 99.5,139.5 Z"/></g>
<g><path style="opacity:1" fill="#fefffe" d="M -0.5,159.5 C 6.16667,159.5 12.8333,159.5 19.5,159.5C 19.5,166.167 19.5,172.833 19.5,179.5C 12.8333,179.5 6.16667,179.5 -0.5,179.5C -0.5,172.833 -0.5,166.167 -0.5,159.5 Z"/></g>
<g><path style="opacity:1" fill="#edeeed" d="M 19.5,159.5 C 26.1667,159.5 32.8333,159.5 39.5,159.5C 39.5,166.167 39.5,172.833 39.5,179.5C 32.8333,179.5 26.1667,179.5 19.5,179.5C 19.5,172.833 19.5,166.167 19.5,159.5 Z"/></g>
<g><path style="opacity:1" fill="#fefffe" d="M 39.5,159.5 C 46.1667,159.5 52.8333,159.5 59.5,159.5C 59.5,166.167 59.5,172.833 59.5,179.5C 52.8333,179.5 46.1667,179.5 39.5,179.5C 39.5,172.833 39.5,166.167 39.5,159.5 Z"/></g>
<g><path style="opacity:1" fill="#edeeed" d="M 59.5,159.5 C 66.1667,159.5 72.8333,159.5 79.5,159.5C 79.5,166.167 79.5,172.833 79.5,179.5C 72.8333,179.5 66.1667,179.5 59.5,179.5C 59.5,172.833 59.5,166.167 59.5,159.5 Z"/></g>
<g><path style="opacity:1" fill="#fefffe" d="M 79.5,159.5 C 86.1667,159.5 92.8333,159.5 99.5,159.5C 99.5,166.167 99.5,172.833 99.5,179.5C 92.8333,179.5 86.1667,179.5 79.5,179.5C 79.5,172.833 79.5,166.167 79.5,159.5 Z"/></g>
<g><path style="opacity:1" fill="#edeeed" d="M -0.5,179.5 C 6.16667,179.5 12.8333,179.5 19.5,179.5C 19.5,186.167 19.5,192.833 19.5,199.5C 12.8333,199.5 6.16667,199.5 -0.5,199.5C -0.5,192.833 -0.5,186.167 -0.5,179.5 Z"/></g>
<g><path style="opacity:1" fill="#fefffe" d="M 19.5,179.5 C 26.1667,179.5 32.8333,179.5 39.5,179.5C 39.5,186.167 39.5,192.833 39.5,199.5C 32.8333,199.5 26.1667,199.5 19.5,199.5C 19.5,192.833 19.5,186.167 19.5,179.5 Z"/></g>
<g><path style="opacity:1" fill="#edeeed" d="M 39.5,179.5 C 46.1667,179.5 52.8333,179.5 59.5,179.5C 59.5,186.167 59.5,192.833 59.5,199.5C 52.8333,199.5 46.1667,199.5 39.5,199.5C 39.5,192.833 39.5,186.167 39.5,179.5 Z"/></g>
<g><path style="opacity:1" fill="#fefffe" d="M 59.5,179.5 C 66.1667,179.5 72.8333,179.5 79.5,179.5C 79.5,186.167 79.5,192.833 79.5,199.5C 72.8333,199.5 66.1667,199.5 59.5,199.5C 59.5,192.833 59.5,186.167 59.5,179.5 Z"/></g>
<g><path style="opacity:1" fill="#fefffe" d="M -0.5,199.5 C 6.16667,199.5 12.8333,199.5 19.5,199.5C 19.5,206.167 19.5,212.833 19.5,219.5C 12.8333,219.5 6.16667,219.5 -0.5,219.5C -0.5,212.833 -0.5,206.167 -0.5,199.5 Z"/></g>
<g><path style="opacity:1" fill="#edeeed" d="M 19.5,199.5 C 26.1667,199.5 32.8333,199.5 39.5,199.5C 39.5,206.167 39.5,212.833 39.5,219.5C 32.8333,219.5 26.1667,219.5 19.5,219.5C 19.5,212.833 19.5,206.167 19.5,199.5 Z"/></g>
<g><path style="opacity:1" fill="#fefffe" d="M 39.5,199.5 C 46.1667,199.5 52.8333,199.5 59.5,199.5C 59.5,206.167 59.5,212.833 59.5,219.5C 52.8333,219.5 46.1667,219.5 39.5,219.5C 39.5,212.833 39.5,206.167 39.5,199.5 Z"/></g>
<g><path style="opacity:1" fill="#edeeed" d="M 59.5,199.5 C 66.1667,199.5 72.8333,199.5 79.5,199.5C 79.5,206.167 79.5,212.833 79.5,219.5C 72.8333,219.5 66.1667,219.5 59.5,219.5C 59.5,212.833 59.5,206.167 59.5,199.5 Z"/></g>
<g><path style="opacity:1" fill="#edeeed" d="M -0.5,219.5 C 6.16667,219.5 12.8333,219.5 19.5,219.5C 19.5,226.167 19.5,232.833 19.5,239.5C 12.8333,239.5 6.16667,239.5 -0.5,239.5C -0.5,232.833 -0.5,226.167 -0.5,219.5 Z"/></g>
<g><path style="opacity:1" fill="#fefffe" d="M 19.5,219.5 C 26.1667,219.5 32.8333,219.5 39.5,219.5C 39.5,226.167 39.5,232.833 39.5,239.5C 32.8333,239.5 26.1667,239.5 19.5,239.5C 19.5,232.833 19.5,226.167 19.5,219.5 Z"/></g>
<g><path style="opacity:1" fill="#edeeed" d="M 39.5,219.5 C 46.1667,219.5 52.8333,219.5 59.5,219.5C 59.5,226.167 59.5,232.833 59.5,239.5C 52.8333,239.5 46.1667,239.5 39.5,239.5C 39.5,232.833 39.5,226.167 39.5,219.5 Z"/></g>
<g><path style="opacity:1" fill="#fefffe" d="M 59.5,219.5 C 66.1667,219.5 72.8333,219.5 79.5,219.5C 79.5,226.167 79.5,232.833 79.5,239.5C 72.8333,239.5 66.1667,239.5 59.5,239.5C 59.5,232.833 59.5,226.167 59.5,219.5 Z"/></g>
<g><path style="opacity:1" fill="#fefffe" d="M -0.5,239.5 C 6.16667,239.5 12.8333,239.5 19.5,239.5C 19.5,246.167 19.5,252.833 19.5,259.5C 12.8333,259.5 6.16667,259.5 -0.5,259.5C -0.5,252.833 -0.5,246.167 -0.5,239.5 Z"/></g>
<g><path style="opacity:1" fill="#edeeed" d="M 19.5,239.5 C 26.1667,239.5 32.8333,239.5 39.5,239.5C 39.5,246.167 39.5,252.833 39.5,259.5C 32.8333,259.5 26.1667,259.5 19.5,259.5C 19.5,252.833 19.5,246.167 19.5,239.5 Z"/></g>
<g><path style="opacity:1" fill="#fefffe" d="M 39.5,239.5 C 46.1667,239.5 52.8333,239.5 59.5,239.5C 59.5,246.167 59.5,252.833 59.5,259.5C 52.8333,259.5 46.1667,259.5 39.5,259.5C 39.5,252.833 39.5,246.167 39.5,239.5 Z"/></g>
<g><path style="opacity:1" fill="#edeeed" d="M -0.5,259.5 C 6.16667,259.5 12.8333,259.5 19.5,259.5C 19.5,266.167 19.5,272.833 19.5,279.5C 12.8333,279.5 6.16667,279.5 -0.5,279.5C -0.5,272.833 -0.5,266.167 -0.5,259.5 Z"/></g>
<g><path style="opacity:1" fill="#fefffe" d="M 19.5,259.5 C 26.1667,259.5 32.8333,259.5 39.5,259.5C 39.5,266.167 39.5,272.833 39.5,279.5C 32.8333,279.5 26.1667,279.5 19.5,279.5C 19.5,272.833 19.5,266.167 19.5,259.5 Z"/></g>
<g><path style="opacity:1" fill="#edeeed" d="M 39.5,259.5 C 46.1667,259.5 52.8333,259.5 59.5,259.5C 59.5,266.167 59.5,272.833 59.5,279.5C 52.8333,279.5 46.1667,279.5 39.5,279.5C 39.5,272.833 39.5,266.167 39.5,259.5 Z"/></g>
<g><path style="opacity:1" fill="#fefffe" d="M -0.5,279.5 C 6.16667,279.5 12.8333,279.5 19.5,279.5C 19.5,286.167 19.5,292.833 19.5,299.5C 12.8333,299.5 6.16667,299.5 -0.5,299.5C -0.5,292.833 -0.5,286.167 -0.5,279.5 Z"/></g>
<g><path style="opacity:1" fill="#edeeed" d="M 19.5,279.5 C 26.1667,279.5 32.8333,279.5 39.5,279.5C 39.5,286.167 39.5,292.833 39.5,299.5C 32.8333,299.5 26.1667,299.5 19.5,299.5C 19.5,292.833 19.5,286.167 19.5,279.5 Z"/></g>
<g><path style="opacity:1" fill="#fbdece" d="M 680.5,314.5 C 680.5,308.167 680.5,301.833 680.5,295.5C 620.331,295.168 560.331,295.501 500.5,296.5C 499.957,296.44 499.624,296.107 499.5,295.5C 560.163,294.5 620.83,294.167 681.5,294.5C 681.824,301.354 681.491,308.021 680.5,314.5 Z"/></g>
<g><path style="opacity:1" fill="#fefaf8" d="M 177.5,294.5 C 184.755,294.187 191.921,294.52 199,295.5C 199.333,380.833 199.667,466.167 200,551.5C 238.761,552.496 277.594,552.83 316.5,552.5C 313.922,559.492 310.922,566.325 307.5,573C 264.262,573.83 221.096,573.663 178,572.5C 177.5,479.834 177.333,387.167 177.5,294.5 Z"/></g>
<g><path style="opacity:1" fill="#fefbfa" d="M 500.5,296.5 C 560.331,295.501 620.331,295.168 680.5,295.5C 680.5,301.833 680.5,308.167 680.5,314.5C 631.428,392.974 582.094,471.307 532.5,549.5C 531.596,550.209 531.263,551.209 531.5,552.5C 577.833,552.5 624.167,552.5 670.5,552.5C 669.312,557.223 667.812,561.889 666,566.5C 663.543,570.279 660.043,572.446 655.5,573C 606.5,573.667 557.5,573.667 508.5,573C 503.688,568.899 501.855,563.732 503,557.5C 518.698,532.633 534.198,507.633 549.5,482.5C 545.091,478.965 540.091,476.465 534.5,475C 486.131,459.438 439.131,462.771 393.5,485C 388.833,488 384.167,491 379.5,494C 367.877,519.415 356.377,544.915 345,570.5C 343.745,571.211 342.579,572.044 341.5,573C 334.842,573.5 328.175,573.666 321.5,573.5C 361.959,480.294 403.292,387.461 445.5,295C 453.167,294.333 460.833,294.333 468.5,295C 469.304,296.771 470.471,298.271 472,299.5C 494.151,351.129 516.818,402.463 540,453.5C 540.833,454.333 541.667,455.167 542.5,456C 548.275,458.638 554.109,461.138 560,463.5C 561.261,463.241 562.261,462.574 563,461.5C 592.416,413.665 622.083,365.999 652,318.5C 652.483,317.552 652.649,316.552 652.5,315.5C 604.832,315.667 557.166,315.5 509.5,315C 505.576,309.318 502.576,303.151 500.5,296.5 Z"/></g>
<g><path style="opacity:1" fill="#edeeed" d="M -0.5,299.5 C 6.16667,299.5 12.8333,299.5 19.5,299.5C 19.5,306.167 19.5,312.833 19.5,319.5C 12.8333,319.5 6.16667,319.5 -0.5,319.5C -0.5,312.833 -0.5,306.167 -0.5,299.5 Z"/></g>
<g><path style="opacity:1" fill="#fefffe" d="M 19.5,299.5 C 26.1667,299.5 32.8333,299.5 39.5,299.5C 39.5,306.167 39.5,312.833 39.5,319.5C 32.8333,319.5 26.1667,319.5 19.5,319.5C 19.5,312.833 19.5,306.167 19.5,299.5 Z"/></g>
<g><path style="opacity:1" fill="#eeecec" d="M 39.5,299.5 C 44.8333,299.5 50.1667,299.5 55.5,299.5C 53.5375,306.392 51.2042,313.059 48.5,319.5C 45.5,319.5 42.5,319.5 39.5,319.5C 39.5,312.833 39.5,306.167 39.5,299.5 Z"/></g>
<g><path style="opacity:1" fill="#eeeceb" d="M 804.5,299.5 C 809.5,299.5 814.5,299.5 819.5,299.5C 819.5,306.167 819.5,312.833 819.5,319.5C 816.833,319.5 814.167,319.5 811.5,319.5C 808.79,313.041 806.457,306.374 804.5,299.5 Z"/></g>
<g><path style="opacity:1" fill="#f27026" d="M 455.5,317.5 C 456.496,317.414 457.329,317.748 458,318.5C 477.331,361.675 496.164,405.008 514.5,448.5C 473.247,440.553 433.247,444.553 394.5,460.5C 394.167,460.167 393.833,459.833 393.5,459.5C 414.772,412.322 435.439,364.989 455.5,317.5 Z"/></g>
<g><path style="opacity:1" fill="#fefffe" d="M -0.5,319.5 C 6.16667,319.5 12.8333,319.5 19.5,319.5C 19.5,326.167 19.5,332.833 19.5,339.5C 12.8333,339.5 6.16667,339.5 -0.5,339.5C -0.5,332.833 -0.5,326.167 -0.5,319.5 Z"/></g>
<g><path style="opacity:1" fill="#edeeed" d="M 19.5,319.5 C 26.1667,319.5 32.8333,319.5 39.5,319.5C 39.5,326.167 39.5,332.833 39.5,339.5C 32.8333,339.5 26.1667,339.5 19.5,339.5C 19.5,332.833 19.5,326.167 19.5,319.5 Z"/></g>
<g><path style="opacity:1" fill="#edeeed" d="M -0.5,339.5 C 6.16667,339.5 12.8333,339.5 19.5,339.5C 19.5,346.167 19.5,352.833 19.5,359.5C 12.8333,359.5 6.16667,359.5 -0.5,359.5C -0.5,352.833 -0.5,346.167 -0.5,339.5 Z"/></g>
<g><path style="opacity:1" fill="#fefdfc" d="M 39.5,319.5 C 42.5,319.5 45.5,319.5 48.5,319.5C 44.8543,332.75 41.5209,346.083 38.5,359.5C 32.1667,359.5 25.8333,359.5 19.5,359.5C 19.5,352.833 19.5,346.167 19.5,339.5C 26.1667,339.5 32.8333,339.5 39.5,339.5C 39.5,332.833 39.5,326.167 39.5,319.5 Z"/></g>
<g><path style="opacity:1" fill="#f29c6c" d="M 816.5,340.5 C 817.924,342.515 818.59,344.848 818.5,347.5C 817.076,345.485 816.41,343.152 816.5,340.5 Z"/></g>
<g><path style="opacity:1" fill="#fefffe" d="M -0.5,359.5 C 6.16667,359.5 12.8333,359.5 19.5,359.5C 19.5,366.167 19.5,372.833 19.5,379.5C 12.8333,379.5 6.16667,379.5 -0.5,379.5C -0.5,372.833 -0.5,366.167 -0.5,359.5 Z"/></g>
<g><path style="opacity:1" fill="#eeebe9" d="M 19.5,359.5 C 25.8333,359.5 32.1667,359.5 38.5,359.5C 36.7545,369.276 35.0878,378.942 33.5,388.5C 33.2739,385.751 33.6072,383.084 34.5,380.5C 29.544,379.506 24.544,379.173 19.5,379.5C 19.5,372.833 19.5,366.167 19.5,359.5 Z"/></g>
<g><path style="opacity:1" fill="#edeeed" d="M -0.5,379.5 C 6.16667,379.5 12.8333,379.5 19.5,379.5C 19.5,386.167 19.5,392.833 19.5,399.5C 12.8333,399.5 6.16667,399.5 -0.5,399.5C -0.5,392.833 -0.5,386.167 -0.5,379.5 Z"/></g>
<g><path style="opacity:1" fill="#f6f6f6" d="M 599.5,59.5 C 606.167,59.5 612.833,59.5 619.5,59.5C 619.5,66.1667 619.5,72.8333 619.5,79.5C 626.167,79.5 632.833,79.5 639.5,79.5C 646.167,79.5 652.833,79.5 659.5,79.5C 666.167,79.5 672.833,79.5 679.5,79.5C 686.167,79.5 692.833,79.5 699.5,79.5C 706.167,79.5 712.833,79.5 719.5,79.5C 726.167,79.5 732.833,79.5 739.5,79.5C 746.167,79.5 752.833,79.5 759.5,79.5C 766.167,79.5 772.833,79.5 779.5,79.5C 786.167,79.5 792.833,79.5 799.5,79.5C 806.167,79.5 812.833,79.5 819.5,79.5C 826.167,79.5 832.833,79.5 839.5,79.5C 846.167,79.5 852.833,79.5 859.5,79.5C 859.5,352.833 859.5,626.167 859.5,899.5C 572.833,899.5 286.167,899.5 -0.5,899.5C -0.5,732.833 -0.5,566.167 -0.5,399.5C 6.16667,399.5 12.8333,399.5 19.5,399.5C 19.5,392.833 19.5,386.167 19.5,379.5C 24.544,379.173 29.544,379.506 34.5,380.5C 33.6072,383.084 33.2739,385.751 33.5,388.5C 28.653,431.024 29.9864,473.357 37.5,515.5C 37.5,516.833 37.5,518.167 37.5,519.5C 31.5,519.5 25.5,519.5 19.5,519.5C 19.5,526.167 19.5,532.833 19.5,539.5C 26.1667,539.5 32.8333,539.5 39.5,539.5C 39.5,546.167 39.5,552.833 39.5,559.5C 42.5,559.5 45.5,559.5 48.5,559.5C 50.8745,564.953 52.8745,570.619 54.5,576.5C 54.5,577.5 54.5,578.5 54.5,579.5C 49.5,579.5 44.5,579.5 39.5,579.5C 39.5,586.167 39.5,592.833 39.5,599.5C 46.1667,599.5 52.8333,599.5 59.5,599.5C 59.5,606.167 59.5,612.833 59.5,619.5C 64.263,619.226 68.9296,619.559 73.5,620.5C 80.3131,633.458 87.6465,646.125 95.5,658.5C 90.3595,659.488 85.0262,659.821 79.5,659.5C 79.5,666.167 79.5,672.833 79.5,679.5C 86.1667,679.5 92.8333,679.5 99.5,679.5C 99.5,686.167 99.5,692.833 99.5,699.5C 106.167,699.5 112.833,699.5 119.5,699.5C 119.5,706.167 119.5,712.833 119.5,719.5C 126.167,719.5 132.833,719.5 139.5,719.5C 139.5,726.167 139.5,732.833 139.5,739.5C 146.167,739.5 152.833,739.5 159.5,739.5C 159.5,746.167 159.5,752.833 159.5,759.5C 166.167,759.5 172.833,759.5 179.5,759.5C 179.5,766.167 179.5,772.833 179.5,779.5C 186.167,779.5 192.833,779.5 199.5,779.5C 199.5,786.167 199.5,792.833 199.5,799.5C 206.167,799.5 212.833,799.5 219.5,799.5C 219.177,792.978 219.51,786.645 220.5,780.5C 233.412,787.787 246.412,794.787 259.5,801.5C 259.5,807.5 259.5,813.5 259.5,819.5C 266.167,819.5 272.833,819.5 279.5,819.5C 279.5,816.5 279.5,813.5 279.5,810.5C 292.837,815.389 306.171,820.056 319.5,824.5C 319.5,829.5 319.5,834.5 319.5,839.5C 326.167,839.5 332.833,839.5 339.5,839.5C 339.5,846.167 339.5,852.833 339.5,859.5C 346.167,859.5 352.833,859.5 359.5,859.5C 359.5,852.833 359.5,846.167 359.5,839.5C 366.167,839.5 372.833,839.5 379.5,839.5C 379.5,846.167 379.5,852.833 379.5,859.5C 386.167,859.5 392.833,859.5 399.5,859.5C 399.5,852.833 399.5,846.167 399.5,839.5C 403.5,839.5 407.5,839.5 411.5,839.5C 422.167,839.5 432.833,839.5 443.5,839.5C 448.833,839.5 454.167,839.5 459.5,839.5C 459.5,846.167 459.5,852.833 459.5,859.5C 466.167,859.5 472.833,859.5 479.5,859.5C 479.5,852.833 479.5,846.167 479.5,839.5C 486.167,839.5 492.833,839.5 499.5,839.5C 499.5,846.167 499.5,852.833 499.5,859.5C 506.167,859.5 512.833,859.5 519.5,859.5C 519.5,852.833 519.5,846.167 519.5,839.5C 526.167,839.5 532.833,839.5 539.5,839.5C 539.5,834.5 539.5,829.5 539.5,824.5C 551.661,820 563.995,815.667 576.5,811.5C 577.5,811.5 578.5,811.5 579.5,811.5C 579.5,814.167 579.5,816.833 579.5,819.5C 572.833,819.5 566.167,819.5 559.5,819.5C 559.5,826.167 559.5,832.833 559.5,839.5C 566.167,839.5 572.833,839.5 579.5,839.5C 586.167,839.5 592.833,839.5 599.5,839.5C 606.167,839.5 612.833,839.5 619.5,839.5C 626.167,839.5 632.833,839.5 639.5,839.5C 646.167,839.5 652.833,839.5 659.5,839.5C 666.167,839.5 672.833,839.5 679.5,839.5C 686.167,839.5 692.833,839.5 699.5,839.5C 706.167,839.5 712.833,839.5 719.5,839.5C 726.167,839.5 732.833,839.5 739.5,839.5C 746.167,839.5 752.833,839.5 759.5,839.5C 766.167,839.5 772.833,839.5 779.5,839.5C 786.167,839.5 792.833,839.5 799.5,839.5C 806.167,839.5 812.833,839.5 819.5,839.5C 819.5,832.833 819.5,826.167 819.5,819.5C 819.5,812.833 819.5,806.167 819.5,799.5C 819.5,792.833 819.5,786.167 819.5,779.5C 819.5,772.833 819.5,766.167 819.5,759.5C 819.5,752.833 819.5,746.167 819.5,739.5C 819.5,732.833 819.5,726.167 819.5,719.5C 819.5,712.833 819.5,706.167 819.5,699.5C 819.5,692.833 819.5,686.167 819.5,679.5C 819.5,672.833 819.5,666.167 819.5,659.5C 819.5,652.833 819.5,646.167 819.5,639.5C 819.5,632.833 819.5,626.167 819.5,619.5C 819.5,612.833 819.5,606.167 819.5,599.5C 819.5,592.833 819.5,586.167 819.5,579.5C 814.786,579.827 810.12,579.493 805.5,578.5C 806.309,576.929 806.643,575.262 806.5,573.5C 807.398,568.466 809.065,563.799 811.5,559.5C 814.167,559.5 816.833,559.5 819.5,559.5C 819.5,552.833 819.5,546.167 819.5,539.5C 826.167,539.5 832.833,539.5 839.5,539.5C 839.5,532.833 839.5,526.167 839.5,519.5C 833.833,519.5 828.167,519.5 822.5,519.5C 822.5,517.5 822.5,515.5 822.5,513.5C 822.848,509.742 823.515,506.076 824.5,502.5C 826.104,498.1 826.771,493.434 826.5,488.5C 829.968,459.847 830.302,431.18 827.5,402.5C 827.473,396.949 826.806,391.616 825.5,386.5C 823.796,373.388 821.463,360.388 818.5,347.5C 818.59,344.848 817.924,342.515 816.5,340.5C 815.028,333.426 813.362,326.426 811.5,319.5C 814.167,319.5 816.833,319.5 819.5,319.5C 819.5,312.833 819.5,306.167 819.5,299.5C 814.5,299.5 809.5,299.5 804.5,299.5C 764.664,198.988 695.997,124.988 598.5,77.5C 599.49,71.69 599.823,65.69 599.5,59.5 Z"/></g>
<g><path style="opacity:1" fill="#f5945f" d="M 825.5,386.5 C 826.806,391.616 827.473,396.949 827.5,402.5C 826.043,397.402 825.376,392.069 825.5,386.5 Z"/></g>
<g><path style="opacity:1" fill="#f4c8b0" d="M 826.5,488.5 C 826.771,493.434 826.104,498.1 824.5,502.5C 824.362,497.586 825.028,492.919 826.5,488.5 Z"/></g>
<g><path style="opacity:1" fill="#efeceb" d="M 37.5,515.5 C 38.5808,518.627 39.2474,521.96 39.5,525.5C 39.4095,528.152 40.0762,530.485 41.5,532.5C 43.7072,541.537 46.0405,550.537 48.5,559.5C 45.5,559.5 42.5,559.5 39.5,559.5C 39.5,552.833 39.5,546.167 39.5,539.5C 32.8333,539.5 26.1667,539.5 19.5,539.5C 19.5,532.833 19.5,526.167 19.5,519.5C 25.5,519.5 31.5,519.5 37.5,519.5C 37.5,518.167 37.5,516.833 37.5,515.5 Z"/></g>
<g><path style="opacity:1" fill="#efebea" d="M 822.5,513.5 C 822.5,515.5 822.5,517.5 822.5,519.5C 828.167,519.5 833.833,519.5 839.5,519.5C 839.5,526.167 839.5,532.833 839.5,539.5C 832.833,539.5 826.167,539.5 819.5,539.5C 819.5,546.167 819.5,552.833 819.5,559.5C 816.833,559.5 814.167,559.5 811.5,559.5C 815.604,544.164 819.271,528.831 822.5,513.5 Z"/></g>
<g><path style="opacity:1" fill="#fabe9d" d="M 39.5,525.5 C 40.9238,527.515 41.5905,529.848 41.5,532.5C 40.0762,530.485 39.4095,528.152 39.5,525.5 Z"/></g>
<g><path style="opacity:1" fill="#f69c69" d="M 532.5,549.5 C 578.324,551.165 624.324,552.165 670.5,552.5C 624.167,552.5 577.833,552.5 531.5,552.5C 531.263,551.209 531.596,550.209 532.5,549.5 Z"/></g>
<g><path style="opacity:1" fill="#eeecea" d="M 54.5,576.5 C 60.2438,591.331 66.5772,605.998 73.5,620.5C 68.9296,619.559 64.263,619.226 59.5,619.5C 59.5,612.833 59.5,606.167 59.5,599.5C 52.8333,599.5 46.1667,599.5 39.5,599.5C 39.5,592.833 39.5,586.167 39.5,579.5C 44.5,579.5 49.5,579.5 54.5,579.5C 54.5,578.5 54.5,577.5 54.5,576.5 Z"/></g>
<g><path style="opacity:1" fill="#efecea" d="M 806.5,573.5 C 806.643,575.262 806.309,576.929 805.5,578.5C 810.12,579.493 814.786,579.827 819.5,579.5C 819.5,586.167 819.5,592.833 819.5,599.5C 812.833,599.5 806.167,599.5 799.5,599.5C 799.5,606.167 799.5,612.833 799.5,619.5C 795.167,619.5 790.833,619.5 786.5,619.5C 793.77,604.331 800.437,588.998 806.5,573.5 Z"/></g>
<g><path style="opacity:1" fill="#fefffe" d="M 819.5,599.5 C 819.5,606.167 819.5,612.833 819.5,619.5C 812.833,619.5 806.167,619.5 799.5,619.5C 799.5,612.833 799.5,606.167 799.5,599.5C 806.167,599.5 812.833,599.5 819.5,599.5 Z"/></g>
<g><path style="opacity:1" fill="#fefcfb" d="M 786.5,619.5 C 790.833,619.5 795.167,619.5 799.5,619.5C 799.5,626.167 799.5,632.833 799.5,639.5C 792.833,639.5 786.167,639.5 779.5,639.5C 779.5,646.167 779.5,652.833 779.5,659.5C 774.305,659.821 769.305,659.487 764.5,658.5C 772.075,645.689 779.408,632.689 786.5,619.5 Z"/></g>
<g><path style="opacity:1" fill="#edeeed" d="M 799.5,619.5 C 806.167,619.5 812.833,619.5 819.5,619.5C 819.5,626.167 819.5,632.833 819.5,639.5C 812.833,639.5 806.167,639.5 799.5,639.5C 799.5,632.833 799.5,626.167 799.5,619.5 Z"/></g>
<g><path style="opacity:1" fill="#edeeed" d="M 799.5,639.5 C 799.5,646.167 799.5,652.833 799.5,659.5C 792.833,659.5 786.167,659.5 779.5,659.5C 779.5,652.833 779.5,646.167 779.5,639.5C 786.167,639.5 792.833,639.5 799.5,639.5 Z"/></g>
<g><path style="opacity:1" fill="#fefffe" d="M 799.5,639.5 C 806.167,639.5 812.833,639.5 819.5,639.5C 819.5,646.167 819.5,652.833 819.5,659.5C 812.833,659.5 806.167,659.5 799.5,659.5C 799.5,652.833 799.5,646.167 799.5,639.5 Z"/></g>
<g><path style="opacity:1" fill="#fefffe" d="M 779.5,659.5 C 786.167,659.5 792.833,659.5 799.5,659.5C 799.5,666.167 799.5,672.833 799.5,679.5C 792.833,679.5 786.167,679.5 779.5,679.5C 779.5,672.833 779.5,666.167 779.5,659.5 Z"/></g>
<g><path style="opacity:1" fill="#edeeed" d="M 799.5,659.5 C 806.167,659.5 812.833,659.5 819.5,659.5C 819.5,666.167 819.5,672.833 819.5,679.5C 812.833,679.5 806.167,679.5 799.5,679.5C 799.5,672.833 799.5,666.167 799.5,659.5 Z"/></g>
<g><path style="opacity:1" fill="#efeded" d="M 764.5,658.5 C 769.305,659.487 774.305,659.821 779.5,659.5C 779.5,666.167 779.5,672.833 779.5,679.5C 772.833,679.5 766.167,679.5 759.5,679.5C 759.5,686.167 759.5,692.833 759.5,699.5C 752.833,699.5 746.167,699.5 739.5,699.5C 739.5,706.167 739.5,712.833 739.5,719.5C 732.833,719.5 726.167,719.5 719.5,719.5C 719.5,726.167 719.5,732.833 719.5,739.5C 712.833,739.5 706.167,739.5 699.5,739.5C 699.5,746.167 699.5,752.833 699.5,759.5C 692.833,759.5 686.167,759.5 679.5,759.5C 679.5,766.167 679.5,772.833 679.5,779.5C 672.833,779.5 666.167,779.5 659.5,779.5C 659.5,786.167 659.5,792.833 659.5,799.5C 652.833,799.5 646.167,799.5 639.5,799.5C 639.823,792.978 639.49,786.645 638.5,780.5C 689.319,749.015 731.319,708.348 764.5,658.5 Z"/></g>
<g><path style="opacity:1" fill="#fefffe" d="M 779.5,679.5 C 779.5,686.167 779.5,692.833 779.5,699.5C 772.833,699.5 766.167,699.5 759.5,699.5C 759.5,692.833 759.5,686.167 759.5,679.5C 766.167,679.5 772.833,679.5 779.5,679.5 Z"/></g>
<g><path style="opacity:1" fill="#edeeed" d="M 779.5,679.5 C 786.167,679.5 792.833,679.5 799.5,679.5C 799.5,686.167 799.5,692.833 799.5,699.5C 792.833,699.5 786.167,699.5 779.5,699.5C 779.5,692.833 779.5,686.167 779.5,679.5 Z"/></g>
<g><path style="opacity:1" fill="#fefffe" d="M 799.5,679.5 C 806.167,679.5 812.833,679.5 819.5,679.5C 819.5,686.167 819.5,692.833 819.5,699.5C 812.833,699.5 806.167,699.5 799.5,699.5C 799.5,692.833 799.5,686.167 799.5,679.5 Z"/></g>
<g><path style="opacity:1" fill="#fefffe" d="M 759.5,699.5 C 759.5,706.167 759.5,712.833 759.5,719.5C 752.833,719.5 746.167,719.5 739.5,719.5C 739.5,712.833 739.5,706.167 739.5,699.5C 746.167,699.5 752.833,699.5 759.5,699.5 Z"/></g>
<g><path style="opacity:1" fill="#edeeed" d="M 759.5,699.5 C 766.167,699.5 772.833,699.5 779.5,699.5C 779.5,706.167 779.5,712.833 779.5,719.5C 772.833,719.5 766.167,719.5 759.5,719.5C 759.5,712.833 759.5,706.167 759.5,699.5 Z"/></g>
<g><path style="opacity:1" fill="#fefffe" d="M 779.5,699.5 C 786.167,699.5 792.833,699.5 799.5,699.5C 799.5,706.167 799.5,712.833 799.5,719.5C 792.833,719.5 786.167,719.5 779.5,719.5C 779.5,712.833 779.5,706.167 779.5,699.5 Z"/></g>
<g><path style="opacity:1" fill="#edeeed" d="M 799.5,699.5 C 806.167,699.5 812.833,699.5 819.5,699.5C 819.5,706.167 819.5,712.833 819.5,719.5C 812.833,719.5 806.167,719.5 799.5,719.5C 799.5,712.833 799.5,706.167 799.5,699.5 Z"/></g>
<g><path style="opacity:1" fill="#fefffe" d="M 739.5,719.5 C 739.5,726.167 739.5,732.833 739.5,739.5C 732.833,739.5 726.167,739.5 719.5,739.5C 719.5,732.833 719.5,726.167 719.5,719.5C 726.167,719.5 732.833,719.5 739.5,719.5 Z"/></g>
<g><path style="opacity:1" fill="#edeeed" d="M 739.5,719.5 C 746.167,719.5 752.833,719.5 759.5,719.5C 759.5,726.167 759.5,732.833 759.5,739.5C 752.833,739.5 746.167,739.5 739.5,739.5C 739.5,732.833 739.5,726.167 739.5,719.5 Z"/></g>
<g><path style="opacity:1" fill="#fefffe" d="M 759.5,719.5 C 766.167,719.5 772.833,719.5 779.5,719.5C 779.5,726.167 779.5,732.833 779.5,739.5C 772.833,739.5 766.167,739.5 759.5,739.5C 759.5,732.833 759.5,726.167 759.5,719.5 Z"/></g>
<g><path style="opacity:1" fill="#edeeed" d="M 779.5,719.5 C 786.167,719.5 792.833,719.5 799.5,719.5C 799.5,726.167 799.5,732.833 799.5,739.5C 792.833,739.5 786.167,739.5 779.5,739.5C 779.5,732.833 779.5,726.167 779.5,719.5 Z"/></g>
<g><path style="opacity:1" fill="#fefffe" d="M 799.5,719.5 C 806.167,719.5 812.833,719.5 819.5,719.5C 819.5,726.167 819.5,732.833 819.5,739.5C 812.833,739.5 806.167,739.5 799.5,739.5C 799.5,732.833 799.5,726.167 799.5,719.5 Z"/></g>
<g><path style="opacity:1" fill="#fefffe" d="M 719.5,739.5 C 719.5,746.167 719.5,752.833 719.5,759.5C 712.833,759.5 706.167,759.5 699.5,759.5C 699.5,752.833 699.5,746.167 699.5,739.5C 706.167,739.5 712.833,739.5 719.5,739.5 Z"/></g>
<g><path style="opacity:1" fill="#edeeed" d="M 719.5,739.5 C 726.167,739.5 732.833,739.5 739.5,739.5C 739.5,746.167 739.5,752.833 739.5,759.5C 732.833,759.5 726.167,759.5 719.5,759.5C 719.5,752.833 719.5,746.167 719.5,739.5 Z"/></g>
<g><path style="opacity:1" fill="#fefffe" d="M 739.5,739.5 C 746.167,739.5 752.833,739.5 759.5,739.5C 759.5,746.167 759.5,752.833 759.5,759.5C 752.833,759.5 746.167,759.5 739.5,759.5C 739.5,752.833 739.5,746.167 739.5,739.5 Z"/></g>
<g><path style="opacity:1" fill="#edeeed" d="M 759.5,739.5 C 766.167,739.5 772.833,739.5 779.5,739.5C 779.5,746.167 779.5,752.833 779.5,759.5C 772.833,759.5 766.167,759.5 759.5,759.5C 759.5,752.833 759.5,746.167 759.5,739.5 Z"/></g>
<g><path style="opacity:1" fill="#fefffe" d="M 779.5,739.5 C 786.167,739.5 792.833,739.5 799.5,739.5C 799.5,746.167 799.5,752.833 799.5,759.5C 792.833,759.5 786.167,759.5 779.5,759.5C 779.5,752.833 779.5,746.167 779.5,739.5 Z"/></g>
<g><path style="opacity:1" fill="#edeeed" d="M 799.5,739.5 C 806.167,739.5 812.833,739.5 819.5,739.5C 819.5,746.167 819.5,752.833 819.5,759.5C 812.833,759.5 806.167,759.5 799.5,759.5C 799.5,752.833 799.5,746.167 799.5,739.5 Z"/></g>
<g><path style="opacity:1" fill="#f0efee" d="M 95.5,658.5 C 128.634,707.968 170.3,748.634 220.5,780.5C 219.51,786.645 219.177,792.978 219.5,799.5C 212.833,799.5 206.167,799.5 199.5,799.5C 199.5,792.833 199.5,786.167 199.5,779.5C 192.833,779.5 186.167,779.5 179.5,779.5C 179.5,772.833 179.5,766.167 179.5,759.5C 172.833,759.5 166.167,759.5 159.5,759.5C 159.5,752.833 159.5,746.167 159.5,739.5C 152.833,739.5 146.167,739.5 139.5,739.5C 139.5,732.833 139.5,726.167 139.5,719.5C 132.833,719.5 126.167,719.5 119.5,719.5C 119.5,712.833 119.5,706.167 119.5,699.5C 112.833,699.5 106.167,699.5 99.5,699.5C 99.5,692.833 99.5,686.167 99.5,679.5C 92.8333,679.5 86.1667,679.5 79.5,679.5C 79.5,672.833 79.5,666.167 79.5,659.5C 85.0262,659.821 90.3595,659.488 95.5,658.5 Z"/></g>
<g><path style="opacity:1" fill="#fefffe" d="M 699.5,759.5 C 699.5,766.167 699.5,772.833 699.5,779.5C 692.833,779.5 686.167,779.5 679.5,779.5C 679.5,772.833 679.5,766.167 679.5,759.5C 686.167,759.5 692.833,759.5 699.5,759.5 Z"/></g>
<g><path style="opacity:1" fill="#edeeed" d="M 699.5,759.5 C 706.167,759.5 712.833,759.5 719.5,759.5C 719.5,766.167 719.5,772.833 719.5,779.5C 712.833,779.5 706.167,779.5 699.5,779.5C 699.5,772.833 699.5,766.167 699.5,759.5 Z"/></g>
<g><path style="opacity:1" fill="#fefffe" d="M 719.5,759.5 C 726.167,759.5 732.833,759.5 739.5,759.5C 739.5,766.167 739.5,772.833 739.5,779.5C 732.833,779.5 726.167,779.5 719.5,779.5C 719.5,772.833 719.5,766.167 719.5,759.5 Z"/></g>
<g><path style="opacity:1" fill="#edeeed" d="M 739.5,759.5 C 746.167,759.5 752.833,759.5 759.5,759.5C 759.5,766.167 759.5,772.833 759.5,779.5C 752.833,779.5 746.167,779.5 739.5,779.5C 739.5,772.833 739.5,766.167 739.5,759.5 Z"/></g>
<g><path style="opacity:1" fill="#fefffe" d="M 759.5,759.5 C 766.167,759.5 772.833,759.5 779.5,759.5C 779.5,766.167 779.5,772.833 779.5,779.5C 772.833,779.5 766.167,779.5 759.5,779.5C 759.5,772.833 759.5,766.167 759.5,759.5 Z"/></g>
<g><path style="opacity:1" fill="#edeeed" d="M 779.5,759.5 C 786.167,759.5 792.833,759.5 799.5,759.5C 799.5,766.167 799.5,772.833 799.5,779.5C 792.833,779.5 786.167,779.5 779.5,779.5C 779.5,772.833 779.5,766.167 779.5,759.5 Z"/></g>
<g><path style="opacity:1" fill="#fefffe" d="M 799.5,759.5 C 806.167,759.5 812.833,759.5 819.5,759.5C 819.5,766.167 819.5,772.833 819.5,779.5C 812.833,779.5 806.167,779.5 799.5,779.5C 799.5,772.833 799.5,766.167 799.5,759.5 Z"/></g>
<g><path style="opacity:1" fill="#fefffe" d="M 679.5,779.5 C 679.5,786.167 679.5,792.833 679.5,799.5C 672.833,799.5 666.167,799.5 659.5,799.5C 659.5,792.833 659.5,786.167 659.5,779.5C 666.167,779.5 672.833,779.5 679.5,779.5 Z"/></g>
<g><path style="opacity:1" fill="#edeeed" d="M 679.5,779.5 C 686.167,779.5 692.833,779.5 699.5,779.5C 699.5,786.167 699.5,792.833 699.5,799.5C 692.833,799.5 686.167,799.5 679.5,799.5C 679.5,792.833 679.5,786.167 679.5,779.5 Z"/></g>
<g><path style="opacity:1" fill="#fefffe" d="M 699.5,779.5 C 706.167,779.5 712.833,779.5 719.5,779.5C 719.5,786.167 719.5,792.833 719.5,799.5C 712.833,799.5 706.167,799.5 699.5,799.5C 699.5,792.833 699.5,786.167 699.5,779.5 Z"/></g>
<g><path style="opacity:1" fill="#edeeed" d="M 719.5,779.5 C 726.167,779.5 732.833,779.5 739.5,779.5C 739.5,786.167 739.5,792.833 739.5,799.5C 732.833,799.5 726.167,799.5 719.5,799.5C 719.5,792.833 719.5,786.167 719.5,779.5 Z"/></g>
<g><path style="opacity:1" fill="#fefffe" d="M 739.5,779.5 C 746.167,779.5 752.833,779.5 759.5,779.5C 759.5,786.167 759.5,792.833 759.5,799.5C 752.833,799.5 746.167,799.5 739.5,799.5C 739.5,792.833 739.5,786.167 739.5,779.5 Z"/></g>
<g><path style="opacity:1" fill="#edeeed" d="M 759.5,779.5 C 766.167,779.5 772.833,779.5 779.5,779.5C 779.5,786.167 779.5,792.833 779.5,799.5C 772.833,799.5 766.167,799.5 759.5,799.5C 759.5,792.833 759.5,786.167 759.5,779.5 Z"/></g>
<g><path style="opacity:1" fill="#fefffe" d="M 779.5,779.5 C 786.167,779.5 792.833,779.5 799.5,779.5C 799.5,786.167 799.5,792.833 799.5,799.5C 792.833,799.5 786.167,799.5 779.5,799.5C 779.5,792.833 779.5,786.167 779.5,779.5 Z"/></g>
<g><path style="opacity:1" fill="#edeeed" d="M 799.5,779.5 C 806.167,779.5 812.833,779.5 819.5,779.5C 819.5,786.167 819.5,792.833 819.5,799.5C 812.833,799.5 806.167,799.5 799.5,799.5C 799.5,792.833 799.5,786.167 799.5,779.5 Z"/></g>
<g><path style="opacity:1" fill="#fefcfc" d="M 638.5,780.5 C 639.49,786.645 639.823,792.978 639.5,799.5C 632.833,799.5 626.167,799.5 619.5,799.5C 619.5,806.167 619.5,812.833 619.5,819.5C 612.833,819.5 606.167,819.5 599.5,819.5C 599.5,813.5 599.5,807.5 599.5,801.5C 612.593,794.785 625.593,787.785 638.5,780.5 Z"/></g>
<g><path style="opacity:1" fill="#edeeed" d="M 639.5,799.5 C 639.5,806.167 639.5,812.833 639.5,819.5C 632.833,819.5 626.167,819.5 619.5,819.5C 619.5,812.833 619.5,806.167 619.5,799.5C 626.167,799.5 632.833,799.5 639.5,799.5 Z"/></g>
<g><path style="opacity:1" fill="#fefffe" d="M 639.5,799.5 C 646.167,799.5 652.833,799.5 659.5,799.5C 659.5,806.167 659.5,812.833 659.5,819.5C 652.833,819.5 646.167,819.5 639.5,819.5C 639.5,812.833 639.5,806.167 639.5,799.5 Z"/></g>
<g><path style="opacity:1" fill="#edeeed" d="M 659.5,799.5 C 666.167,799.5 672.833,799.5 679.5,799.5C 679.5,806.167 679.5,812.833 679.5,819.5C 672.833,819.5 666.167,819.5 659.5,819.5C 659.5,812.833 659.5,806.167 659.5,799.5 Z"/></g>
<g><path style="opacity:1" fill="#fefffe" d="M 679.5,799.5 C 686.167,799.5 692.833,799.5 699.5,799.5C 699.5,806.167 699.5,812.833 699.5,819.5C 692.833,819.5 686.167,819.5 679.5,819.5C 679.5,812.833 679.5,806.167 679.5,799.5 Z"/></g>
<g><path style="opacity:1" fill="#edeeed" d="M 699.5,799.5 C 706.167,799.5 712.833,799.5 719.5,799.5C 719.5,806.167 719.5,812.833 719.5,819.5C 712.833,819.5 706.167,819.5 699.5,819.5C 699.5,812.833 699.5,806.167 699.5,799.5 Z"/></g>
<g><path style="opacity:1" fill="#fefffe" d="M 719.5,799.5 C 726.167,799.5 732.833,799.5 739.5,799.5C 739.5,806.167 739.5,812.833 739.5,819.5C 732.833,819.5 726.167,819.5 719.5,819.5C 719.5,812.833 719.5,806.167 719.5,799.5 Z"/></g>
<g><path style="opacity:1" fill="#edeeed" d="M 739.5,799.5 C 746.167,799.5 752.833,799.5 759.5,799.5C 759.5,806.167 759.5,812.833 759.5,819.5C 752.833,819.5 746.167,819.5 739.5,819.5C 739.5,812.833 739.5,806.167 739.5,799.5 Z"/></g>
<g><path style="opacity:1" fill="#fefffe" d="M 759.5,799.5 C 766.167,799.5 772.833,799.5 779.5,799.5C 779.5,806.167 779.5,812.833 779.5,819.5C 772.833,819.5 766.167,819.5 759.5,819.5C 759.5,812.833 759.5,806.167 759.5,799.5 Z"/></g>
<g><path style="opacity:1" fill="#edeeed" d="M 779.5,799.5 C 786.167,799.5 792.833,799.5 799.5,799.5C 799.5,806.167 799.5,812.833 799.5,819.5C 792.833,819.5 786.167,819.5 779.5,819.5C 779.5,812.833 779.5,806.167 779.5,799.5 Z"/></g>
<g><path style="opacity:1" fill="#fefffe" d="M 799.5,799.5 C 806.167,799.5 812.833,799.5 819.5,799.5C 819.5,806.167 819.5,812.833 819.5,819.5C 812.833,819.5 806.167,819.5 799.5,819.5C 799.5,812.833 799.5,806.167 799.5,799.5 Z"/></g>
<g><path style="opacity:1" fill="#eeecec" d="M 259.5,801.5 C 266.407,804.128 273.073,807.128 279.5,810.5C 279.5,813.5 279.5,816.5 279.5,819.5C 272.833,819.5 266.167,819.5 259.5,819.5C 259.5,813.5 259.5,807.5 259.5,801.5 Z"/></g>
<g><path style="opacity:1" fill="#eeebe9" d="M 599.5,801.5 C 599.5,807.5 599.5,813.5 599.5,819.5C 592.833,819.5 586.167,819.5 579.5,819.5C 579.5,816.833 579.5,814.167 579.5,811.5C 578.5,811.5 577.5,811.5 576.5,811.5C 584.078,808.188 591.745,804.854 599.5,801.5 Z"/></g>
<g><path style="opacity:1" fill="#edeeed" d="M 579.5,819.5 C 579.5,826.167 579.5,832.833 579.5,839.5C 572.833,839.5 566.167,839.5 559.5,839.5C 559.5,832.833 559.5,826.167 559.5,819.5C 566.167,819.5 572.833,819.5 579.5,819.5 Z"/></g>
<g><path style="opacity:1" fill="#fefffe" d="M 579.5,819.5 C 586.167,819.5 592.833,819.5 599.5,819.5C 599.5,826.167 599.5,832.833 599.5,839.5C 592.833,839.5 586.167,839.5 579.5,839.5C 579.5,832.833 579.5,826.167 579.5,819.5 Z"/></g>
<g><path style="opacity:1" fill="#edeeed" d="M 599.5,819.5 C 606.167,819.5 612.833,819.5 619.5,819.5C 619.5,826.167 619.5,832.833 619.5,839.5C 612.833,839.5 606.167,839.5 599.5,839.5C 599.5,832.833 599.5,826.167 599.5,819.5 Z"/></g>
<g><path style="opacity:1" fill="#fefffe" d="M 619.5,819.5 C 626.167,819.5 632.833,819.5 639.5,819.5C 639.5,826.167 639.5,832.833 639.5,839.5C 632.833,839.5 626.167,839.5 619.5,839.5C 619.5,832.833 619.5,826.167 619.5,819.5 Z"/></g>
<g><path style="opacity:1" fill="#edeeed" d="M 639.5,819.5 C 646.167,819.5 652.833,819.5 659.5,819.5C 659.5,826.167 659.5,832.833 659.5,839.5C 652.833,839.5 646.167,839.5 639.5,839.5C 639.5,832.833 639.5,826.167 639.5,819.5 Z"/></g>
<g><path style="opacity:1" fill="#fefffe" d="M 659.5,819.5 C 666.167,819.5 672.833,819.5 679.5,819.5C 679.5,826.167 679.5,832.833 679.5,839.5C 672.833,839.5 666.167,839.5 659.5,839.5C 659.5,832.833 659.5,826.167 659.5,819.5 Z"/></g>
<g><path style="opacity:1" fill="#edeeed" d="M 679.5,819.5 C 686.167,819.5 692.833,819.5 699.5,819.5C 699.5,826.167 699.5,832.833 699.5,839.5C 692.833,839.5 686.167,839.5 679.5,839.5C 679.5,832.833 679.5,826.167 679.5,819.5 Z"/></g>
<g><path style="opacity:1" fill="#fefffe" d="M 699.5,819.5 C 706.167,819.5 712.833,819.5 719.5,819.5C 719.5,826.167 719.5,832.833 719.5,839.5C 712.833,839.5 706.167,839.5 699.5,839.5C 699.5,832.833 699.5,826.167 699.5,819.5 Z"/></g>
<g><path style="opacity:1" fill="#edeeed" d="M 719.5,819.5 C 726.167,819.5 732.833,819.5 739.5,819.5C 739.5,826.167 739.5,832.833 739.5,839.5C 732.833,839.5 726.167,839.5 719.5,839.5C 719.5,832.833 719.5,826.167 719.5,819.5 Z"/></g>
<g><path style="opacity:1" fill="#fefffe" d="M 739.5,819.5 C 746.167,819.5 752.833,819.5 759.5,819.5C 759.5,826.167 759.5,832.833 759.5,839.5C 752.833,839.5 746.167,839.5 739.5,839.5C 739.5,832.833 739.5,826.167 739.5,819.5 Z"/></g>
<g><path style="opacity:1" fill="#edeeed" d="M 759.5,819.5 C 766.167,819.5 772.833,819.5 779.5,819.5C 779.5,826.167 779.5,832.833 779.5,839.5C 772.833,839.5 766.167,839.5 759.5,839.5C 759.5,832.833 759.5,826.167 759.5,819.5 Z"/></g>
<g><path style="opacity:1" fill="#fefffe" d="M 779.5,819.5 C 786.167,819.5 792.833,819.5 799.5,819.5C 799.5,826.167 799.5,832.833 799.5,839.5C 792.833,839.5 786.167,839.5 779.5,839.5C 779.5,832.833 779.5,826.167 779.5,819.5 Z"/></g>
<g><path style="opacity:1" fill="#edeeed" d="M 799.5,819.5 C 806.167,819.5 812.833,819.5 819.5,819.5C 819.5,826.167 819.5,832.833 819.5,839.5C 812.833,839.5 806.167,839.5 799.5,839.5C 799.5,832.833 799.5,826.167 799.5,819.5 Z"/></g>
<g><path style="opacity:1" fill="#f29c6c" d="M 330.5,826.5 C 333.152,826.41 335.485,827.076 337.5,828.5C 334.848,828.59 332.515,827.924 330.5,826.5 Z"/></g>
<g><path style="opacity:1" fill="#f3efed" d="M 539.5,824.5 C 539.5,829.5 539.5,834.5 539.5,839.5C 532.833,839.5 526.167,839.5 519.5,839.5C 519.5,846.167 519.5,852.833 519.5,859.5C 512.833,859.5 506.167,859.5 499.5,859.5C 499.5,852.833 499.5,846.167 499.5,839.5C 492.833,839.5 486.167,839.5 479.5,839.5C 479.5,846.167 479.5,852.833 479.5,859.5C 472.833,859.5 466.167,859.5 459.5,859.5C 459.5,852.833 459.5,846.167 459.5,839.5C 454.167,839.5 448.833,839.5 443.5,839.5C 475.837,837.42 507.837,832.42 539.5,824.5 Z"/></g>
<g><path style="opacity:1" fill="#f1efef" d="M 319.5,824.5 C 323.167,825.167 326.833,825.833 330.5,826.5C 332.515,827.924 334.848,828.59 337.5,828.5C 350.388,831.463 363.388,833.796 376.5,835.5C 381.616,836.806 386.949,837.473 392.5,837.5C 398.966,838.09 405.3,838.757 411.5,839.5C 407.5,839.5 403.5,839.5 399.5,839.5C 399.5,846.167 399.5,852.833 399.5,859.5C 392.833,859.5 386.167,859.5 379.5,859.5C 379.5,852.833 379.5,846.167 379.5,839.5C 372.833,839.5 366.167,839.5 359.5,839.5C 359.5,846.167 359.5,852.833 359.5,859.5C 352.833,859.5 346.167,859.5 339.5,859.5C 339.5,852.833 339.5,846.167 339.5,839.5C 332.833,839.5 326.167,839.5 319.5,839.5C 319.5,834.5 319.5,829.5 319.5,824.5 Z"/></g>
<g><path style="opacity:1" fill="#f69560" d="M 376.5,835.5 C 382.069,835.376 387.402,836.043 392.5,837.5C 386.949,837.473 381.616,836.806 376.5,835.5 Z"/></g>
</svg>
